<?xml version="1.0" encoding="utf-8"?>
<!-- Generator: Adobe Illustrator 27.5.0, SVG Export Plug-In . SVG Version: 6.00 Build 0)  -->
<svg version="1.1" xmlns="http://www.w3.org/2000/svg" xmlns:xlink="http://www.w3.org/1999/xlink" x="0px" y="0px"
	 viewBox="0 0 500 500" style="enable-background:new 0 0 500 500;" xml:space="preserve">
<g id="Background_Simple">
	<g>
		<path style="fill:#FEC448;" d="M61.429,206.362c0,0-40.476,61.047-11.696,153.125c28.78,92.078,112.439,115.57,162.078,89.969
			c49.638-25.601,56.883-58.845,96.965-82.998c40.082-24.154,122.844-23.296,154.703-89.735
			c31.86-66.439-34.205-159.566-109.043-213.192C279.598,9.906,117.146,73.356,61.429,206.362z"/>
		<path style="opacity:0.7;fill:#FFFFFF;" d="M61.429,206.362c0,0-40.476,61.047-11.696,153.125
			c28.78,92.078,112.439,115.57,162.078,89.969c49.638-25.601,56.883-58.845,96.965-82.998
			c40.082-24.154,122.844-23.296,154.703-89.735c31.86-66.439-34.205-159.566-109.043-213.192
			C279.598,9.906,117.146,73.356,61.429,206.362z"/>
	</g>
</g>
<g id="Plant">
	<g>
		<g>
			<path style="fill:#263238;" d="M318.785,338.096c3.572,1.56,12.307,1.363,12.313,1.363c0.091-0.002-1.878-5.718-2.043-6.065
				c-1.916-4.01-7.978-10.63-12.909-9.964c-3.552,0.48-5.528,4.036-4.727,7.381C312.238,334.229,315.743,336.766,318.785,338.096z"
				/>
			<path style="fill:#263238;" d="M321.8,363.398c3.705,0.54,11.5-1.72,12.12-1.903c1.231,4.364,2.848,8.742,4.728,13.083
				c1.072,2.483,2.229,4.95,3.421,7.409c-0.712-1.041-1.355-1.968-1.459-2.088c-2.908-3.361-10.502-8.145-15.082-6.199
				c-3.301,1.401-4.267,5.352-2.61,8.367c1.691,3.078,5.744,4.601,9.028,5.079c3.333,0.487,10.018-1.308,11.781-1.807
				c0.467,0.939,0.922,1.882,1.393,2.818c2.258,4.495,4.529,8.971,6.623,13.429c0.739,1.57,1.409,3.144,2.085,4.718
				c-0.632-0.925-1.173-1.698-1.268-1.808c-2.908-3.36-10.501-8.145-15.082-6.199c-3.3,1.401-4.267,5.352-2.61,8.367
				c1.693,3.079,5.744,4.602,9.028,5.08c3.181,0.464,9.366-1.137,11.463-1.719c0.644,1.631,1.291,3.263,1.842,4.873
				c0.351,1.108,0.766,2.15,1.056,3.282c0.312,1.115,0.619,2.218,0.924,3.312c0.51,2.125,1.05,4.317,1.495,6.403
				c0.321,1.449,0.6,2.836,0.886,4.233c-0.717-1.573-2.186-4.621-2.338-4.862c-2.364-3.763-9.146-9.641-13.969-8.413
				c-3.474,0.885-5.028,4.644-3.846,7.875c1.206,3.3,4.98,5.419,8.154,6.389c3.495,1.068,11.232,0.092,12.198-0.036
				c0.464,2.312,0.893,4.565,1.264,6.698c0.199,1.129,0.371,2.189,0.547,3.255h3.077c-0.227-1.228-0.465-2.484-0.726-3.797
				c-0.461-2.349-1.001-4.85-1.58-7.414c0.582-0.231,3.882-1.566,6.806-3.2c2.547,2.759,9.074,5.987,9.919,6.397
				c-0.888,2.184-1.773,4.3-2.641,6.283c-0.261,0.601-0.513,1.159-0.767,1.73h3.241c0.081-0.195,0.161-0.382,0.243-0.583
				c0.911-2.214,1.841-4.599,2.773-7.056c0.936,0.196,8.595,1.751,12.165,0.946c3.237-0.732,7.159-2.564,8.608-5.765
				c1.419-3.132,0.149-6.997-3.251-8.139c-4.717-1.585-11.918,3.772-14.556,7.349c-0.156,0.211-1.589,2.688-2.467,4.266
				c0.375-1.006,0.75-1.978,1.124-3.019c0.754-2.052,1.444-4.122,2.195-6.347c0.325-1.087,0.654-2.185,0.986-3.294
				c0.352-1.093,0.585-2.292,0.886-3.447c0.642-2.694,1.16-5.455,1.621-8.247c1.798,0.654,8.219,2.888,11.546,2.654
				c3.311-0.232,7.464-1.448,9.381-4.393c1.878-2.882,1.208-6.895-1.979-8.539c-4.424-2.281-12.353,1.925-15.503,5.06
				c-0.197,0.194-2.203,2.699-3.28,4.095c0.265-1.681,0.536-3.357,0.748-5.067c0.613-4.934,1.078-9.948,1.566-14.948
				c0.148-1.532,0.315-3.056,0.476-4.583c0.638,0.241,8.211,3.06,11.937,2.798c3.311-0.232,7.465-1.449,9.381-4.393
				c1.877-2.881,1.208-6.894-1.979-8.537c-4.423-2.282-12.353,1.923-15.502,5.058c-0.237,0.236-3.121,3.842-3.809,4.796
				c0.355-3.362,0.74-6.709,1.254-9.993c0.702-4.531,1.642-8.939,2.868-13.143c0.296,0.113,8.189,3.091,12.004,2.823
				c3.311-0.233,7.465-1.449,9.382-4.394c1.877-2.882,1.208-6.894-1.979-8.538c-4.423-2.281-12.352,1.924-15.503,5.059
				c-0.247,0.246-3.346,4.128-3.859,4.872c0.074-0.25,0.123-0.517,0.199-0.765c1.366-4.47,3.251-8.629,5.206-12.436
				c1.132-2.215,2.338-4.269,3.556-6.24c1.414,0.706,7.907,3.858,11.367,3.997c3.317,0.132,7.579-0.621,9.807-3.336
				c2.182-2.659,1.958-6.721-1.028-8.704c-4.147-2.753-12.489,0.556-15.965,3.326c-0.189,0.15-1.94,1.895-3.198,3.183
				c0.563-0.882,1.128-1.802,1.684-2.635c2.082-3.135,4.181-5.878,6.06-8.292c1.08-1.364,2.082-2.576,3.034-3.701
				c1.747-0.031,8.789-0.244,11.868-1.69c3.004-1.411,6.44-4.043,7.167-7.48c0.711-3.366-1.36-6.867-4.924-7.251
				c-4.948-0.534-10.828,6.248-12.636,10.307c-0.156,0.352-1.969,6.119-1.877,6.118c0,0,0.085-0.001,0.106-0.001
				c-0.938,1.063-1.928,2.214-2.987,3.493c-1.936,2.378-4.101,5.082-6.258,8.184c-2.165,3.095-4.43,6.518-6.49,10.338
				c-2.07,3.827-4.051,7.958-5.543,12.479c-0.017,0.051-0.028,0.107-0.045,0.158c0.026-1.458-0.038-5.537-0.079-5.848
				c-0.571-4.407-4.265-12.587-9.159-13.492c-3.525-0.651-6.511,2.11-6.792,5.539c-0.286,3.502,2.251,7.006,4.728,9.218
				c2.792,2.494,10.541,4.908,11.159,5.099c-1.382,4.318-2.448,8.862-3.274,13.519c-0.475,2.663-0.871,5.359-1.233,8.068
				c-0.019-1.261-0.044-2.389-0.065-2.546c-0.571-4.408-4.265-12.587-9.159-13.491c-3.526-0.653-6.511,2.111-6.792,5.539
				c-0.288,3.502,2.252,7.006,4.727,9.217c2.512,2.243,9.077,4.436,10.822,4.992c-0.128,1.04-0.268,2.078-0.392,3.12
				c-0.597,4.994-1.171,9.98-1.884,14.855c-0.25,1.718-0.56,3.4-0.864,5.083c-0.017-1.119-0.042-2.062-0.06-2.205
				c-0.572-4.408-4.265-12.587-9.158-13.492c-3.527-0.651-6.513,2.11-6.794,5.54c-0.287,3.5,2.253,7.006,4.728,9.217
				c2.396,2.141,8.439,4.219,10.509,4.89c-0.363,1.716-0.724,3.434-1.153,5.081c-0.319,1.117-0.547,2.215-0.929,3.32
				c-0.356,1.1-0.708,2.192-1.056,3.271c-0.749,2.055-1.507,4.18-2.286,6.166c-0.532,1.386-1.065,2.697-1.596,4.018
				c0.269-1.707,0.725-5.06,0.732-5.344c0.068-2.952-0.98-7.751-3.067-11.125c0.013-0.436-0.012-0.87-0.081-1.302
				c-0.546-3.396-3.736-5.919-7.202-4.996c-4.809,1.281-7.859,9.723-8.086,14.16c-0.014,0.262,0.158,3.119,0.295,4.92
				c-0.243-1.046-0.464-2.065-0.727-3.138c-0.505-2.127-1.071-4.234-1.671-6.505c-0.328-1.086-0.66-2.182-0.996-3.291
				c-0.309-1.105-0.776-2.234-1.162-3.363c-0.951-2.6-2.042-5.19-3.198-7.774c1.862-0.446,8.449-2.126,11.094-4.156
				c2.634-2.02,5.426-5.327,5.401-8.839c-0.024-3.441-2.795-6.418-6.36-6.031c-4.948,0.537-9.242,8.419-10.14,12.772
				c-0.055,0.272-0.349,3.467-0.476,5.225c-0.707-1.547-1.405-3.096-2.172-4.639c-2.211-4.454-4.587-8.893-6.94-13.332
				c-0.721-1.359-1.423-2.721-2.131-4.083c0.664-0.152,8.538-1.979,11.501-4.252c2.633-2.02,5.426-5.326,5.401-8.84
				c-0.025-3.439-2.796-6.417-6.361-6.029c-4.948,0.537-9.241,8.418-10.14,12.771c-0.067,0.328-0.482,4.926-0.531,6.101
				c-1.559-2.999-3.083-6.003-4.467-9.026c-1.914-4.168-3.562-8.362-4.858-12.544c0.31-0.07,8.535-1.941,11.57-4.268
				c2.634-2.02,5.426-5.327,5.401-8.839c-0.024-3.44-2.796-6.417-6.361-6.03c-4.947,0.537-9.241,8.419-10.139,12.771
				c-0.07,0.342-0.514,5.29-0.53,6.191c-0.077-0.248-0.184-0.497-0.258-0.746c-1.326-4.483-2.049-8.992-2.518-13.247
				c-0.278-2.471-0.404-4.848-0.476-7.165c1.567-0.191,8.723-1.144,11.685-2.938c2.84-1.719,5.98-4.698,6.34-8.192
				c0.353-3.422-2.075-6.686-5.66-6.692c-4.977-0.01-10.11,7.354-11.481,11.581c-0.075,0.23-0.574,2.651-0.912,4.419
				c-0.016-1.046-0.053-2.125-0.049-3.127c0.007-3.763,0.245-7.21,0.48-10.259c0.148-1.734,0.316-3.298,0.489-4.76
				c1.44-0.99,7.195-5.053,8.966-7.957c1.728-2.834,3.141-6.924,1.851-10.192c-1.263-3.2-4.922-4.977-8.106-3.331
				c-4.421,2.285-5.584,11.185-4.854,15.569c0.064,0.378,1.734,6.189,1.81,6.139c0,0,0.071-0.048,0.087-0.06
				c-0.195,1.403-0.387,2.911-0.563,4.562c-0.303,3.051-0.617,6.5-0.705,10.279c-0.099,3.775-0.099,7.88,0.29,12.203
				c0.385,4.333,1.01,8.873,2.261,13.466c0.014,0.052,0.036,0.104,0.05,0.156c-0.783-1.23-3.088-4.596-3.294-4.835
				c-2.907-3.361-10.501-8.145-15.082-6.2c-3.3,1.402-4.267,5.353-2.61,8.368C314.465,361.398,318.516,362.919,321.8,363.398z"/>
			<path style="fill:#263238;" d="M407.141,340.017c0.077,0.048,1.589-5.806,1.642-6.186c0.612-4.401-0.791-13.267-5.272-15.432
				c-3.228-1.559-6.838,0.317-8.013,3.55c-1.202,3.3,0.321,7.351,2.126,10.138C399.741,335.359,407.135,340.013,407.141,340.017z"/>
		</g>
	</g>
</g>
<g id="Picture">
	<g>
		<rect x="61.8" y="101.507" style="fill:none;stroke:#263238;stroke-miterlimit:10;" width="131.516" height="170.655"/>
		<rect x="65.531" y="106.348" style="fill:none;stroke:#263238;stroke-miterlimit:10;" width="124.053" height="160.972"/>
		<rect x="96.633" y="146.707" style="fill:none;stroke:#263238;stroke-miterlimit:10;" width="61.848" height="80.254"/>
	</g>
</g>
<g id="Question_Mark">
	<g>
		<path style="fill:none;stroke:#263238;stroke-miterlimit:10;" d="M321.033,164.638l2.755-19.531
			c5.381-3.318,10.361-6.93,14.938-10.833c4.574-3.903,8.372-8.203,11.387-12.902c3.016-4.697,4.914-9.816,5.694-15.352
			c0.607-4.306,0.105-7.801-1.502-10.485c-1.609-2.682-4.257-4.286-7.949-4.807c-3.282-0.463-6.001,0.094-8.156,1.673
			c-2.159,1.578-3.46,3.957-3.908,7.135c-0.203,1.436-0.236,2.79-0.102,4.063c0.134,1.274,0.304,2.658,0.513,4.151l-19.655,1.463
			c-0.43-2.151-0.682-4.253-0.758-6.302c-0.079-2.05,0.029-4.098,0.318-6.15c1.215-8.613,4.821-15.108,10.826-19.491
			c6.002-4.38,13.926-5.878,23.768-4.49c10.047,1.417,17.456,5.234,22.226,11.448c4.77,6.216,6.446,14.346,5.029,24.393
			c-0.925,6.562-2.932,12.448-6.02,17.658c-3.087,5.212-7.074,9.931-11.955,14.155c-4.885,4.227-10.404,8.154-16.562,11.781
			l-2.125,15.071L321.033,164.638z M315.752,196.517l2.885-20.454l20.607,2.906l-2.885,20.454L315.752,196.517z"/>
	</g>
</g>
<g id="Character_1_">
	<g>
		<g>
			<path style="fill:#FF651C;stroke:#263238;stroke-linecap:round;stroke-linejoin:round;stroke-miterlimit:10;" d="
				M210.913,249.028c0,0-64.196,0.856-66.194,5.421c-1.997,4.565-11.127,59.917-11.698,79.033
				c-0.571,19.116-0.856,31.67,1.141,33.953c1.997,2.283,33.097,20.258,33.097,20.258s-14.551,51.072-9.986,52.784
				c4.565,1.712,32.526,8.845,50.501,9.13c17.975,0.285,35.665,0.285,37.091,0.285c1.427,0,47.363,1.712,63.34-1.997
				c15.978-3.709,20.828-3.995,20.828-10.271c0-6.277-3.994-13.981-4.28-15.407c-0.285-1.427,10.842-109.562,4.565-136.096
				c-6.277-26.534-14.551-36.806-20.828-38.518c-6.277-1.712-51.072-0.571-51.072-0.571L210.913,249.028z"/>
			<path style="fill:none;stroke:#263238;stroke-linecap:round;stroke-linejoin:round;stroke-miterlimit:10;" d="M245.104,271.986
				c-2.111,1.226-4.34,2.362-6.677,3.357"/>
			<path style="fill:none;stroke:#263238;stroke-linecap:round;stroke-linejoin:round;stroke-miterlimit:10;" d="M268.894,250.416
				c0,0-7.795,11.233-20.772,19.709"/>
			<path style="fill:none;stroke:#263238;stroke-linecap:round;stroke-linejoin:round;stroke-miterlimit:10;" d="M265.085,261.841
				c0,0-5.885,8.309-11.079,11.079"/>
			
				<line style="fill:none;stroke:#263238;stroke-linecap:round;stroke-linejoin:round;stroke-miterlimit:10;" x1="224.293" y1="353.255" x2="222.611" y2="348.033"/>
			
				<line style="fill:none;stroke:#263238;stroke-linecap:round;stroke-linejoin:round;stroke-miterlimit:10;" x1="233.453" y1="381.701" x2="226.016" y2="358.604"/>
			
				<line style="fill:none;stroke:#263238;stroke-linecap:round;stroke-linejoin:round;stroke-miterlimit:10;" x1="235.736" y1="382.271" x2="243.154" y2="370.573"/>
			
				<line style="fill:none;stroke:#263238;stroke-linecap:round;stroke-linejoin:round;stroke-miterlimit:10;" x1="252.57" y1="375.424" x2="270.545" y2="355.166"/>
			
				<line style="fill:none;stroke:#263238;stroke-linecap:round;stroke-linejoin:round;stroke-miterlimit:10;" x1="206.177" y1="438.616" x2="244.866" y2="449.891"/>
			
				<line style="fill:none;stroke:#263238;stroke-linecap:round;stroke-linejoin:round;stroke-miterlimit:10;" x1="194.936" y1="435.34" x2="201.579" y2="437.276"/>
		</g>
		<path style="fill:#263238;stroke:#263238;stroke-linecap:round;stroke-linejoin:round;stroke-miterlimit:10;" d="M210.515,122.133
			c0,0-20.16-4.631-23.974,0.545c-3.814,5.176,3.814,10.08,2.724,11.17c-1.09,1.09-24.519,13.077-22.612,24.791
			c1.907,11.715,17.708,23.702,18.253,26.971c0.545,3.269-18.253,4.359-20.705,9.263c-2.452,4.904-5.993,28.06,14.439,35.688
			c20.432,7.628,46.041-5.176,53.124-5.176c7.083,0,14.166,13.894,22.339,13.077c8.173-0.817,12.804-6.811,12.804-6.811
			s8.445,11.714,20.705,6.811c12.259-4.904,26.426-22.067,20.432-27.243c-5.993-5.176-12.804-6.811-8.445-11.442
			c4.359-4.631,13.349-16.891,11.987-27.516c-1.362-10.625-13.894-11.442-18.798-14.711c-4.904-3.269,5.449-8.718,5.176-17.708
			c-0.272-8.99-6.811-23.974-40.047-34.054c-33.237-10.08-49.583-5.176-51.217,3.269
			C205.066,117.502,210.515,122.133,210.515,122.133z"/>
		<path style="fill:#FFFFFF;stroke:#263238;stroke-linecap:round;stroke-linejoin:round;stroke-miterlimit:10;" d="M214.138,209.541
			c0,0-6.811,42.499-7.083,43.861c-0.272,1.362,11.987,13.622,28.605,11.442c16.618-2.179,25.064-13.349,25.064-13.349
			l-5.176-42.227c0,0-14.166,6.811-22.884,6.538C223.946,215.534,214.138,209.541,214.138,209.541z"/>
		<polygon style="fill:#263238;stroke:#263238;stroke-linecap:round;stroke-linejoin:round;stroke-miterlimit:10;" points="
			211.343,232.342 240.026,226.791 214.138,209.541 		"/>
		<g>
			<path style="fill:#FFFFFF;stroke:#263238;stroke-linecap:round;stroke-linejoin:round;stroke-miterlimit:10;" d="
				M198.998,172.071c0,0-4.799-6.079-7.039,1.6c-2.24,7.679,7.359,16.957,7.359,16.957L198.998,172.071z"/>
			<path style="fill:#FFFFFF;stroke:#263238;stroke-linecap:round;stroke-linejoin:round;stroke-miterlimit:10;" d="
				M267.767,172.071c0,0,4.799-6.079,7.039,1.6s-7.359,16.957-7.359,16.957L267.767,172.071z"/>
			<path style="fill:#FFFFFF;stroke:#263238;stroke-linecap:round;stroke-linejoin:round;stroke-miterlimit:10;" d="
				M214.079,133.652c0,0-13.738,13.34-15.73,17.322c-1.991,3.982-1.195,49.578,0.995,53.958c2.19,4.38,24.092,21.504,27.676,22.897
				c3.584,1.394,11.747,2.787,18.119-0.398s21.703-19.512,23.296-23.694c1.593-4.181-0.398-51.967-1.394-56.546
				c-0.996-4.579-25.087-20.906-35.242-21.703C221.645,124.692,214.079,133.652,214.079,133.652z"/>
			<path style="fill:#263238;stroke:#263238;stroke-linecap:round;stroke-linejoin:round;stroke-miterlimit:10;" d="
				M224.881,125.494c0,0,20.58,18.775,35.383,19.497c14.803,0.722,14.803,0.722,14.803,0.722s-32.495-4.333-42.604-26.357
				C232.463,119.356,221.271,109.969,224.881,125.494z"/>
			
				<line style="fill:none;stroke:#263238;stroke-linecap:round;stroke-linejoin:round;stroke-miterlimit:10;" x1="236.379" y1="162.722" x2="237.972" y2="182.831"/>
			<path style="fill:none;stroke:#263238;stroke-linecap:round;stroke-linejoin:round;stroke-miterlimit:10;" d="M239.565,187.013
				c0,0-3.584,5.376-6.172,5.376c-2.588,0-5.177-2.987-5.177-2.987"/>
			<path style="fill:none;stroke:#263238;stroke-linecap:round;stroke-linejoin:round;stroke-miterlimit:10;" d="M217.862,193.583
				c0,0,4.579,7.566,10.553,7.964c5.973,0.398,12.345-1.394,12.345-1.394"/>
			<path style="fill:#263238;stroke:#263238;stroke-linecap:round;stroke-linejoin:round;stroke-miterlimit:10;" d="
				M238.769,159.536c0,0,6.969-5.177,9.756-6.969c2.787-1.792,11.747,1.593,11.747,1.593s-6.77-3.783-10.353-4.38
				c-3.584-0.597-10.951,4.579-11.548,6.969C237.773,159.138,235.981,158.54,238.769,159.536z"/>
			<path style="fill:#263238;stroke:#263238;stroke-linecap:round;stroke-linejoin:round;stroke-miterlimit:10;" d="M224.433,160.49
				c0,0-0.995-2.787-4.38-2.987c-3.385-0.199-18.318,3.783-15.73,3.783c2.588,0,13.34-0.199,16.128-0.199
				C223.238,161.087,224.433,160.49,224.433,160.49z"/>
			<path style="fill:#263238;" d="M258.679,171.88c0,0-5.177,1.195-9.159,0.996c-3.982-0.199-7.566-1.394-5.973,0.398
				c1.593,1.792,4.779,3.385,9.756,2.389C258.281,174.668,260.073,173.672,258.679,171.88z"/>
			<path style="fill:#263238;" d="M222.641,171.88c0,0-5.177,1.195-9.159,0.996c-3.982-0.199-7.566-1.394-5.973,0.398
				c1.593,1.792,4.779,3.385,9.756,2.389C222.243,174.668,224.035,173.672,222.641,171.88z"/>
		</g>
		<g>
			<path style="fill:#FFFFFF;stroke:#263238;stroke-linecap:round;stroke-linejoin:round;stroke-miterlimit:10;" d="
				M156.383,286.639c0,0,5.993-32.964,8.718-36.233c2.724-3.269,32.419-27.515,34.054-29.15
				c1.635-1.635,13.349-19.343,13.894-17.163c0.545,2.18-1.362,11.715-4.904,16.891c-3.542,5.176-8.445,11.442-8.445,11.442
				s18.253,4.631,19.343,5.721c1.09,1.09,7.293,14.656,7.628,16.346c0.578,2.917-0.258,6.049-2.724,6.266
				c-2.238,0.197-16.891-7.356-16.891-7.356l-11.714,1.635c0,0-8.445,10.352-14.167,12.259c-5.721,1.907-7.9,2.18-7.9,2.18
				l0.273,20.16L156.383,286.639z"/>
			<path style="fill:none;stroke:#263238;stroke-linecap:round;stroke-linejoin:round;stroke-miterlimit:10;" d="M200.58,238.647
				c0,0,15.906,2.134,16.875,2.91c0.97,0.776,9.215,12.935,9.215,12.935"/>
			<path style="fill:none;stroke:#263238;stroke-linecap:round;stroke-linejoin:round;stroke-miterlimit:10;" d="M201.666,245.893
				c0,0,15.79,3.617,16.954,4.587c1.164,0.97,7.371,8.147,7.371,8.147"/>
		</g>
		<path style="fill:#FFFFFF;stroke:#263238;stroke-linecap:round;stroke-linejoin:round;stroke-miterlimit:10;" d="M226.32,384.839
			c0,0-21.399-3.995-22.255-4.28c-0.856-0.285-15.978-4.85-17.975-5.706c-1.997-0.856-26.249-5.136-27.39-3.424
			c-1.141,1.712-2.283,11.698-2.568,12.554c-0.285,0.856-2.568,4.85-1.997,7.133c0.571,2.283,0,6.277,0,6.277
			s-0.285,13.41,3.139,13.695c3.424,0.285,6.562-12.554,6.562-12.554s4.85,2.853,14.837,3.424s19.687-4.28,19.687-4.28l26.535,6.277
			L226.32,384.839z"/>
		<g>
			<path style="fill:#FF651C;stroke:#263238;stroke-linecap:round;stroke-linejoin:round;stroke-miterlimit:10;" d="
				M152.309,280.819l28.724,5.248l-1.105,17.952c0,0,6.352,3.038,8.286,20.714c1.933,17.676,7.457,58.73,6.076,61.768
				c-1.381,3.038-9.943,16.295-29.829,17.124c-19.886,0.829-30.657-17.4-32.591-23.2c-1.933-5.8,8.286-43.815,8.838-47.13
				s3.314-25.962,5.8-29.829c2.486-3.867,5.524-6.352,5.524-6.352L152.309,280.819z"/>
			<path style="fill:none;stroke:#263238;stroke-linecap:round;stroke-linejoin:round;stroke-miterlimit:10;" d="M170.16,301.504
				c1.632,0.191,3.251,0.305,4.797,0.305"/>
			<path style="fill:none;stroke:#263238;stroke-linecap:round;stroke-linejoin:round;stroke-miterlimit:10;" d="M152.033,297.114
				c0,0,5.131,1.856,11.413,3.235"/>
		</g>
		<g>
			<path style="fill:#FF651C;stroke:#263238;stroke-linecap:round;stroke-linejoin:round;stroke-miterlimit:10;" d="
				M310.204,289.828l-2.853,73.612c0,0-3.138,0.285-4.28,1.712c-1.141,1.427-1.997,3.139-1.997,3.139s-28.817,1.141-42.512,5.136
				c-13.695,3.994-22.825,8.845-22.825,8.845l-12.554-0.285l-2.568,33.097l16.834,0.571c0,0,8.274,4.85,45.936,8.274
				c37.662,3.424,55.066,4.28,59.061-0.285c3.995-4.565,5.706-11.698,6.277-15.407c0.571-3.709,7.418-26.535,7.418-59.631
				c0-33.097-31.1-81.03-37.947-91.872c-6.848-10.842-13.981-9.986-18.831-8.845"/>
			<polyline style="fill:none;stroke:#263238;stroke-linecap:round;stroke-linejoin:round;stroke-miterlimit:10;" points="
				324.858,358.363 307.35,363.44 323.899,348.033 			"/>
			
				<line style="fill:none;stroke:#263238;stroke-linecap:round;stroke-linejoin:round;stroke-miterlimit:10;" x1="335.882" y1="355.166" x2="330.345" y2="356.772"/>
			<path style="fill:none;stroke:#263238;stroke-linecap:round;stroke-linejoin:round;stroke-miterlimit:10;" d="M301.073,368.291
				c0,0,18.26,1.426,25.679,4.28"/>
			<path style="fill:none;stroke:#263238;stroke-linecap:round;stroke-linejoin:round;stroke-miterlimit:10;" d="M329.409,384.547
				c0.856,0.893,1.687,1.845,2.478,2.86"/>
			<path style="fill:none;stroke:#263238;stroke-linecap:round;stroke-linejoin:round;stroke-miterlimit:10;" d="M308.492,372.285
				c0,0,9.11,2.186,17.43,9.035"/>
			
				<line style="fill:none;stroke:#263238;stroke-linecap:round;stroke-linejoin:round;stroke-miterlimit:10;" x1="235.451" y1="385.41" x2="235.736" y2="413.086"/>
			
				<line style="fill:none;stroke:#263238;stroke-linecap:round;stroke-linejoin:round;stroke-miterlimit:10;" x1="221.755" y1="406.238" x2="233.739" y2="406.238"/>
			
				<line style="fill:none;stroke:#263238;stroke-linecap:round;stroke-linejoin:round;stroke-miterlimit:10;" x1="224.608" y1="389.975" x2="229.459" y2="389.689"/>
		</g>
	</g>
</g>
</svg>
