<svg xmlns="http://www.w3.org/2000/svg" xmlns:xlink="http://www.w3.org/1999/xlink" width="443.359" height="387.221" viewBox="0 0 443.359 387.221">
  <defs>
    <clipPath id="clip-path">
      <path id="Path_97" data-name="Path 97" d="M376.42,313.24l27.85,60.78-17.52,4.94-20.66-25.72Z" fill="#ff651c" stroke="#263238" stroke-linecap="round" stroke-linejoin="round" stroke-width="1"/>
    </clipPath>
    <clipPath id="clip-path-2">
      <path id="Path_107" data-name="Path 107" d="M321.03,296.31l-36.27,16.71,19.34,78.47-6.16,33.01h68.81l-6.81-35.87,16.7-75.39-38.03-15.61Z" fill="#ff651c" stroke="#263238" stroke-linecap="round" stroke-linejoin="round" stroke-width="1"/>
    </clipPath>
    <clipPath id="clip-path-3">
      <path id="Path_114" data-name="Path 114" d="M284.76,313.02l-28.57,61.87,18.24,3.85,20.66-25.72Z" fill="#ff651c" stroke="#263238" stroke-linecap="round" stroke-linejoin="round" stroke-width="1"/>
    </clipPath>
    <clipPath id="clip-path-4">
      <path id="Path_119" data-name="Path 119" d="M275.74,369.51l36.05,41.11-7,7.91-45.43-36.18s-6.23-3-2.49-9.1" fill="#ff651c" stroke="#263238" stroke-linecap="round" stroke-linejoin="round" stroke-width="1"/>
    </clipPath>
    <clipPath id="clip-path-5">
      <path id="Path_130" data-name="Path 130" d="M383.68,370.83l-12,40.83,8.68,6.06,19.61-31.52s8.06-9.1,3-14.22" fill="#ff651c" stroke="#263238" stroke-linecap="round" stroke-linejoin="round" stroke-width="1"/>
    </clipPath>
    <clipPath id="clip-path-6">
      <path id="Path_150" data-name="Path 150" d="M342.92,232s-20.08,18.54-25.68,32.05-.58,27.62,2.51,31.68,5,4.63,5,4.63-10.62,4.06-17.57-6.56-5.22-22.6-3.09-30.9,1.54-32.64,6.37-40.75,11.78-14.1,23.37-12.75,17.76,7.34,21.43,14.87,1.93,20.28,3.09,25.88,6.18,22.4,7.34,32.44S353.16,299.78,351,300.75a12.85,12.85,0,0,1-4.63,1s4.63-23.17,5.6-36.5S353,244,353,244,343.89,232.58,342.92,232Z" fill="#263238" stroke="#263238" stroke-linecap="round" stroke-linejoin="round" stroke-width="1"/>
    </clipPath>
  </defs>
  <g id="contact-bg" transform="translate(-27.257 -59.724)">
    <g id="freepik--background-simple--inject-3">
      <path id="Path_88" data-name="Path 88" d="M124.15,435.32s52.15,27.11,111.75-1.47,79-84,109.88-125.58c16.2-21.79,42.7-33.93,62.92-52.25C473.34,197.43,450,99.48,390.88,72.6,339.67,49.33,280.52,57.67,207.23,97.06S81.13,161.88,42.65,240.38,59.31,397.33,124.15,435.32Z" fill="#fec448"/>
      <path id="Path_89" data-name="Path 89" d="M124.15,435.32s52.15,27.11,111.75-1.47,79-84,109.88-125.58c16.2-21.79,42.7-33.93,62.92-52.25C473.34,197.43,450,99.48,390.88,72.6,339.67,49.33,280.52,57.67,207.23,97.06S81.13,161.88,42.65,240.38,59.31,397.33,124.15,435.32Z" fill="#fff" opacity="0.8"/>
    </g>
    <g id="freepik--Window--inject-3">
      <line id="Line_27" data-name="Line 27" x2="403.05" transform="translate(36.66 368.26)" fill="none" stroke="#263238" stroke-miterlimit="10" stroke-width="1"/>
      <line id="Line_28" data-name="Line 28" x2="403.05" transform="translate(36.66 291.95)" fill="none" stroke="#263238" stroke-miterlimit="10" stroke-width="1"/>
      <line id="Line_29" data-name="Line 29" x2="403.05" transform="translate(36.66 215.64)" fill="none" stroke="#263238" stroke-miterlimit="10" stroke-width="1"/>
      <line id="Line_30" data-name="Line 30" x2="403.05" transform="translate(36.66 139.33)" fill="none" stroke="#263238" stroke-miterlimit="10" stroke-width="1"/>
      <line id="Line_31" data-name="Line 31" y2="272.44" transform="translate(128.3 96)" fill="none" stroke="#263238" stroke-miterlimit="10" stroke-width="1"/>
      <line id="Line_32" data-name="Line 32" y2="272.44" transform="translate(370.56 96)" fill="none" stroke="#263238" stroke-miterlimit="10" stroke-width="1"/>
      <line id="Line_33" data-name="Line 33" x1="3" y2="3.16" transform="translate(134.3 196.99)" fill="none" stroke="#263238" stroke-miterlimit="10" stroke-width="1"/>
      <line id="Line_34" data-name="Line 34" x1="47.48" y2="50.07" transform="translate(140.91 143.11)" fill="none" stroke="#263238" stroke-miterlimit="10" stroke-width="1"/>
      <line id="Line_35" data-name="Line 35" x1="26.67" y2="27.41" transform="translate(164.68 151.26)" fill="none" stroke="#263238" stroke-miterlimit="10" stroke-width="1"/>
      <line id="Line_36" data-name="Line 36" x1="3" y2="3.16" transform="translate(377.93 196.99)" fill="none" stroke="#263238" stroke-miterlimit="10" stroke-width="1"/>
      <line id="Line_37" data-name="Line 37" x1="47.47" y2="50.07" transform="translate(384.54 143.11)" fill="none" stroke="#263238" stroke-miterlimit="10" stroke-width="1"/>
      <line id="Line_38" data-name="Line 38" x1="26.67" y2="27.41" transform="translate(408.31 151.26)" fill="none" stroke="#263238" stroke-miterlimit="10" stroke-width="1"/>
      <line id="Line_39" data-name="Line 39" x1="3" y2="3.16" transform="translate(27.62 351.09)" fill="none" stroke="#263238" stroke-miterlimit="10" stroke-width="1"/>
      <line id="Line_40" data-name="Line 40" x1="47.47" y2="50.08" transform="translate(34.23 297.2)" fill="none" stroke="#263238" stroke-miterlimit="10" stroke-width="1"/>
      <line id="Line_41" data-name="Line 41" x1="26.68" y2="27.42" transform="translate(57.99 305.35)" fill="none" stroke="#263238" stroke-miterlimit="10" stroke-width="1"/>
      <line id="Line_42" data-name="Line 42" x1="2.99" y2="3.16" transform="translate(66.89 131.8)" fill="none" stroke="#263238" stroke-miterlimit="10" stroke-width="1"/>
      <line id="Line_43" data-name="Line 43" x1="47.47" y2="50.07" transform="translate(73.5 77.91)" fill="none" stroke="#263238" stroke-miterlimit="10" stroke-width="1"/>
      <line id="Line_44" data-name="Line 44" x1="26.67" y2="27.41" transform="translate(97.26 86.06)" fill="none" stroke="#263238" stroke-miterlimit="10" stroke-width="1"/>
      <line id="Line_45" data-name="Line 45" x1="2.99" y2="3.16" transform="translate(288.89 131.8)" fill="none" stroke="#263238" stroke-miterlimit="10" stroke-width="1"/>
      <line id="Line_46" data-name="Line 46" x1="47.47" y2="50.07" transform="translate(295.5 77.91)" fill="none" stroke="#263238" stroke-miterlimit="10" stroke-width="1"/>
      <line id="Line_47" data-name="Line 47" x1="26.67" y2="27.41" transform="translate(319.26 86.06)" fill="none" stroke="#263238" stroke-miterlimit="10" stroke-width="1"/>
      <line id="Line_48" data-name="Line 48" x1="3" y2="3.16" transform="translate(220.24 276.26)" fill="none" stroke="#263238" stroke-miterlimit="10" stroke-width="1"/>
      <line id="Line_49" data-name="Line 49" x1="47.47" y2="50.07" transform="translate(226.85 222.38)" fill="none" stroke="#263238" stroke-miterlimit="10" stroke-width="1"/>
      <line id="Line_50" data-name="Line 50" x1="26.67" y2="27.41" transform="translate(250.62 230.53)" fill="none" stroke="#263238" stroke-miterlimit="10" stroke-width="1"/>
    </g>
    <g id="freepik--Plants--inject-3">
      <path id="Path_90" data-name="Path 90" d="M427.92,424.65s-24.76-52.76-19.38-54.28,16.66,6.88,16.66,6.88-33.1-88.7-24.53-95.58S425.24,310,425.24,310s-17.09-54.33-15.08-75,23.72-.76,23.72-.76-17.39-74.17-1.24-78,15.61,84.87,15.61,84.87,5.3-63.47,11.77-45.88-7.13,76.46-7.13,76.46,8.87-19.88,13.8-1.53-9.8,92.52-9.8,92.52,12.52-12.23,13.69,3.06-25.92,62.7-25.92,62.7L429.33,430Z" fill="#fec448"/>
      <path id="Path_91" data-name="Path 91" d="M427.92,424.65s-24.76-52.76-19.38-54.28,16.66,6.88,16.66,6.88-33.1-88.7-24.53-95.58S425.24,310,425.24,310s-17.09-54.33-15.08-75,23.72-.76,23.72-.76-17.39-74.17-1.24-78,15.61,84.87,15.61,84.87,5.3-63.47,11.77-45.88-7.13,76.46-7.13,76.46,8.87-19.88,13.8-1.53-9.8,92.52-9.8,92.52,12.52-12.23,13.69,3.06-25.92,62.7-25.92,62.7L429.33,430Z" fill="#fff" opacity="0.6"/>
      <path id="Path_92" data-name="Path 92" d="M433.21,427s-20.64-36.7-16.82-43.59,15.29,9.18,15.29,9.18-26-65-22.17-71.11,16.06,20.65,16.06,20.65-4.59-89.46,3.05-86.41S437,301.55,437,301.55s-4.58-101.69,2.3-98.63,6.12,116.22,6.12,116.22,13.76-43.59,16.05-23.71-17.58,73.41-17.58,73.41S463,326.78,465.33,349,450,412.42,450,412.42s6.88-16.82,6.88-7.65-5.35,20.65-5.35,20.65" fill="none" stroke="#263238" stroke-linecap="round" stroke-linejoin="round" stroke-width="1"/>
    </g>
    <g id="freepik--character-2--inject-3">
      <path id="Path_93" data-name="Path 93" d="M376.42,313.24l27.85,60.78-17.52,4.94-20.66-25.72Z" fill="#ff651c"/>
      <g id="Group_44" data-name="Group 44" clip-path="url(#clip-path)">
        <g id="Group_43" data-name="Group 43" opacity="0.1">
          <path id="Path_94" data-name="Path 94" d="M371.39,332.7l-1.18,4.59,23.13,39.81,3.32-.93Z"/>
          <path id="Path_95" data-name="Path 95" d="M386.88,378.93l3.34-.94L368.7,343.12l-1.15,4.47Z"/>
          <path id="Path_96" data-name="Path 96" d="M374.25,321.63l-1.22,4.74,26.56,48.97,3.28-.93Z"/>
        </g>
      </g>
      <path id="Path_98" data-name="Path 98" d="M376.42,313.24l27.85,60.78-17.52,4.94-20.66-25.72Z" fill="none" stroke="#263238" stroke-linecap="round" stroke-linejoin="round" stroke-width="1"/>
      <path id="Path_99" data-name="Path 99" d="M321.03,296.31l-36.27,16.71,19.34,78.47-6.16,33.01h68.81l-6.81-35.87,16.7-75.39-38.03-15.61Z" fill="#ff651c"/>
      <g id="Group_46" data-name="Group 46" clip-path="url(#clip-path-2)">
        <g id="Group_45" data-name="Group 45" opacity="0.1">
          <path id="Path_100" data-name="Path 100" d="M321.36,424.5l1.39-31.26a2.2,2.2,0,0,0,0-.44L308.5,302.09l-4.2,1.93,14,89.25-1.39,31.23Z"/>
          <path id="Path_101" data-name="Path 101" d="M329.7,385.76v-.12l-11.3-88.12-4.23,2,11.1,86.67,2.86,38.36h4.46Z"/>
          <path id="Path_102" data-name="Path 102" d="M308.78,424.5l4-30.51a2.22,2.22,0,0,0,0-.68l-15.25-86.15-4.17,1.92,15,84.67-4,30.75Z"/>
          <path id="Path_103" data-name="Path 103" d="M375.06,312.59l-4.19-1.72-15.29,79.07a2.27,2.27,0,0,0,0,.78l5.5,33.78h4.51L360,390.4l.13-.65-.22-1.12,3.35-15.09Z"/>
          <path id="Path_104" data-name="Path 104" d="M334.98,305.29l-4.44.13,3.69,119.08h4.44Z"/>
          <path id="Path_105" data-name="Path 105" d="M350.57,389.82l14.77-81.22-4.2-1.73-15,82.54a2,2,0,0,0,0,.77L352,424.5h4.51Z"/>
          <path id="Path_106" data-name="Path 106" d="M342.5,387.06l11.23-83.23-4.25-1.74-11.42,84.65a2,2,0,0,0,0,.54l4.14,37.22h4.47Z"/>
        </g>
      </g>
      <path id="Path_108" data-name="Path 108" d="M321.03,296.31l-36.27,16.71,19.34,78.47-6.16,33.01h68.81l-6.81-35.87,16.7-75.39-38.03-15.61Z" fill="none" stroke="#263238" stroke-linecap="round" stroke-linejoin="round" stroke-width="1"/>
      <path id="Path_109" data-name="Path 109" d="M284.76,313.02l-28.57,61.87,18.24,3.85,20.66-25.72Z" fill="#ff651c"/>
      <g id="Group_48" data-name="Group 48" clip-path="url(#clip-path-3)">
        <g id="Group_47" data-name="Group 47" opacity="0.1">
          <path id="Path_110" data-name="Path 110" d="M292.27,342.1l-19.9,36.21,2.06.43,4.76-5.93,14.29-26Z"/>
          <path id="Path_111" data-name="Path 111" d="M290.48,335.18l-1.3-5.04-22.21,47.03,3.35.71Z"/>
          <path id="Path_112" data-name="Path 112" d="M259.72,375.63l3.35.71,24.57-52.17-1.31-5.06Z"/>
        </g>
        <path id="Path_113" data-name="Path 113" d="M284.01,323.32l10.08,27.05-10.12-15.49" fill="none" stroke="#263238" stroke-miterlimit="10" stroke-width="1"/>
      </g>
      <path id="Path_115" data-name="Path 115" d="M284.76,313.02l-28.57,61.87,18.24,3.85,20.66-25.72Z" fill="none" stroke="#263238" stroke-linecap="round" stroke-linejoin="round" stroke-width="1"/>
      <path id="Path_116" data-name="Path 116" d="M275.74,369.51l36.05,41.11-7,7.91-45.43-36.18s-6.23-3-2.49-9.1" fill="#ff651c"/>
      <g id="Group_50" data-name="Group 50" clip-path="url(#clip-path-4)">
        <g id="Group_49" data-name="Group 49" opacity="0.1">
          <path id="Path_117" data-name="Path 117" d="M308.01,413.48l3.38-2.89-18.18-21.16-17.47-19.92-4.7.93Z"/>
          <path id="Path_118" data-name="Path 118" d="M300.81,415.38l3.01,2.4,2.83-2.49-38.88-44.2-5.04.99Z"/>
        </g>
      </g>
      <path id="Path_120" data-name="Path 120" d="M275.74,369.51l36.05,41.11-7,7.91-45.43-36.18s-6.23-3-2.49-9.1" fill="none" stroke="#263238" stroke-linecap="round" stroke-linejoin="round" stroke-width="1"/>
      <path id="Path_121" data-name="Path 121" d="M306,409.07c1-.56,18.39-4.72,18.63-2.59s5.42,4.48,7.78,4.48,4.72-1.89,5.19.94-2.12,3.07-4.24,3.3-9.44-2.12-9.44-2.12-6.84,5.66-9.67,7.07-8,1-9.9-.47S299.88,412.37,306,409.07Z" fill="#fff" stroke="#263238" stroke-linecap="round" stroke-linejoin="round" stroke-width="1"/>
      <path id="Path_122" data-name="Path 122" d="M322.05,406.24s6.6-1.89,8-1.18,2.13,14.86,2.13,14.86-.71,1.41-2.13,0-6.13-12-6.13-12" fill="#fff" stroke="#263238" stroke-linecap="round" stroke-linejoin="round" stroke-width="1"/>
      <path id="Path_123" data-name="Path 123" d="M318.74,406.71s6.84-1.65,8.26.94,4.95,14.15,2.12,14.63-3.77-3.31-3.77-3.31l-4.48-8.25-3.07-.47" fill="#fff" stroke="#263238" stroke-linecap="round" stroke-linejoin="round" stroke-width="1"/>
      <path id="Path_124" data-name="Path 124" d="M316.39,408.83s3.3-1.41,4.95-.23,9.2,13.2,7.78,13.68-4.72.23-5.19-.71-6.6-9-6.6-9" fill="#fff" stroke="#263238" stroke-linecap="round" stroke-linejoin="round" stroke-width="1"/>
      <path id="Path_125" data-name="Path 125" d="M314,412.84s3.06-2.83,4.71-1.88,8.49,9.9,7.08,10.84-2.36,0-3.77-1.88a16.5,16.5,0,0,0-3.54-3.3l-2.83.94" fill="#fff" stroke="#263238" stroke-linecap="round" stroke-linejoin="round" stroke-width="1"/>
      <path id="Path_126" data-name="Path 126" d="M383.68,370.83l-12,40.83,8.68,6.06,19.61-31.52s8.06-9.1,3-14.22" fill="#ff651c"/>
      <g id="Group_52" data-name="Group 52" clip-path="url(#clip-path-5)">
        <g id="Group_51" data-name="Group 51" opacity="0.1">
          <path id="Path_127" data-name="Path 127" d="M380.63,417.23l.15-.25,16.61-45.33-4.64-.28L376.7,415.19l1.8,1.25Z"/>
          <path id="Path_128" data-name="Path 128" d="M371.7,411.69l3.77,2.64,15.5-42.94-.43-.15-4.15-.25Z"/>
          <path id="Path_129" data-name="Path 129" d="M404.34,374.37a5.62,5.62,0,0,0-1.42-2.39l-2.38-.14L388,405.43l11.92-19.18Z"/>
        </g>
      </g>
      <path id="Path_131" data-name="Path 131" d="M383.68,370.83l-12,40.83,8.68,6.06,19.61-31.52s8.06-9.1,3-14.22" fill="none" stroke="#263238" stroke-linecap="round" stroke-linejoin="round" stroke-width="1"/>
      <path id="Path_132" data-name="Path 132" d="M377.72,409.07c-1-.56-18.4-4.72-18.63-2.59s-5.43,4.48-7.78,4.48-4.72-1.89-5.19.94,2.12,3.07,4.24,3.3,9.44-2.12,9.44-2.12,6.84,5.66,9.67,7.07,8,1,9.9-.47S383.85,412.37,377.72,409.07Z" fill="#fff" stroke="#263238" stroke-linecap="round" stroke-linejoin="round" stroke-width="1"/>
      <path id="Path_133" data-name="Path 133" d="M361.68,406.24s-6.6-1.89-8-1.18-2.12,14.86-2.12,14.86.71,1.41,2.12,0,6.14-12,6.14-12" fill="#fff" stroke="#263238" stroke-linecap="round" stroke-linejoin="round" stroke-width="1"/>
      <path id="Path_134" data-name="Path 134" d="M365,406.71s-6.83-1.65-8.25.94-5,14.15-2.12,14.63,3.77-3.31,3.77-3.31l4.48-8.25,3.07-.47" fill="#fff" stroke="#263238" stroke-linecap="round" stroke-linejoin="round" stroke-width="1"/>
      <path id="Path_135" data-name="Path 135" d="M367.34,408.83s-3.3-1.41-4.95-.23-9.2,13.2-7.78,13.68,4.71.23,5.19-.71,6.6-9,6.6-9" fill="#fff" stroke="#263238" stroke-linecap="round" stroke-linejoin="round" stroke-width="1"/>
      <path id="Path_136" data-name="Path 136" d="M369.7,412.84S366.64,410,365,411s-8.49,9.9-7.07,10.84,2.36,0,3.77-1.88a16.5,16.5,0,0,1,3.54-3.3l2.83.94" fill="#fff" stroke="#263238" stroke-linecap="round" stroke-linejoin="round" stroke-width="1"/>
      <path id="Path_137" data-name="Path 137" d="M323.66,292.13s-5.71,1.76-8.13,5.28.44,30.77.44,30.77l18.25-10.11,19.12,12.09s-1.76-27.91-3.3-31.87-11.21-8.57-14.51-8.13S323.66,292.13,323.66,292.13Z" fill="#ff651c" stroke="#263238" stroke-linecap="round" stroke-linejoin="round" stroke-width="1"/>
      <path id="Path_138" data-name="Path 138" d="M321.03,276.97v25.28l12.09,32.53,10.33-33.19V276.75Z" fill="#fff" stroke="#263238" stroke-linecap="round" stroke-linejoin="round" stroke-width="1"/>
      <path id="Path_139" data-name="Path 139" d="M321,286.05a20.23,20.23,0,0,0,11.65,3.67h0a20.2,20.2,0,0,0,10.77-3.1v-9.87L321,277Z" fill="#263238" stroke="#263238" stroke-linecap="round" stroke-linejoin="round" stroke-width="1"/>
      <path id="Path_140" data-name="Path 140" d="M332.68,284h0a20.37,20.37,0,0,1-20.37-20.36L308.72,235a24,24,0,0,1,24-24h0a24,24,0,0,1,24,24L353,263.6A20.36,20.36,0,0,1,332.68,284Z" fill="#fff" stroke="#263238" stroke-linecap="round" stroke-linejoin="round" stroke-width="1"/>
      <path id="Path_141" data-name="Path 141" d="M337.91,255.8s5.19-4.35,11.39.34" fill="none" stroke="#263238" stroke-linecap="round" stroke-linejoin="round" stroke-width="1"/>
      <path id="Path_142" data-name="Path 142" d="M328.53,255.3a7.86,7.86,0,0,0-5.19-1.17" fill="none" stroke="#263238" stroke-linecap="round" stroke-linejoin="round" stroke-width="1"/>
      <path id="Path_143" data-name="Path 143" d="M339.92,245.42s5.53-2.68,8.88,2.51" fill="none" stroke="#263238" stroke-linecap="round" stroke-linejoin="round" stroke-width="1"/>
      <path id="Path_144" data-name="Path 144" d="M331,267.36s2.35,1.84,4.36,0" fill="none" stroke="#263238" stroke-linecap="round" stroke-linejoin="round" stroke-width="1"/>
      <path id="Path_145" data-name="Path 145" d="M328.7,271.38s4.86,3,7.7,0" fill="none" stroke="#263238" stroke-linecap="round" stroke-linejoin="round" stroke-width="1"/>
      <path id="Path_146" data-name="Path 146" d="M342.92,232s-20.08,18.54-25.68,32.05-.58,27.62,2.51,31.68,5,4.63,5,4.63-10.62,4.06-17.57-6.56-5.22-22.6-3.09-30.9,1.54-32.64,6.37-40.75,11.78-14.1,23.37-12.75,17.76,7.34,21.43,14.87,1.93,20.28,3.09,25.88,6.18,22.4,7.34,32.44S353.16,299.78,351,300.75a12.85,12.85,0,0,1-4.63,1s4.63-23.17,5.6-36.5S353,244,353,244,343.89,232.58,342.92,232Z" fill="#263238"/>
      <g id="Group_53" data-name="Group 53" clip-path="url(#clip-path-6)">
        <path id="Path_147" data-name="Path 147" d="M340.57,219s-2.37,6.53-19.42,25.24-21.68,36.56-16.5,54" fill="none" stroke="#707070" stroke-miterlimit="10" stroke-width="1"/>
        <path id="Path_148" data-name="Path 148" d="M336.36,212.48s-9.38,7.77-21,19.41a108.812,108.812,0,0,0-18.12,24.27" fill="none" stroke="#707070" stroke-miterlimit="10" stroke-width="1"/>
        <path id="Path_149" data-name="Path 149" d="M344.77,220.57s7.12,12.94,11,20.71,8.42,51.44-5.17,67" fill="none" stroke="#707070" stroke-miterlimit="10" stroke-width="1"/>
        <line id="Line_51" data-name="Line 51" x2="3" y2="22.11" transform="translate(339.92 209.89)" fill="none" stroke="#707070" stroke-miterlimit="10" stroke-width="1"/>
      </g>
      <path id="Path_151" data-name="Path 151" d="M342.92,232s-20.08,18.54-25.68,32.05-.58,27.62,2.51,31.68,5,4.63,5,4.63-10.62,4.06-17.57-6.56-5.22-22.6-3.09-30.9,1.54-32.64,6.37-40.75,11.78-14.1,23.37-12.75,17.76,7.34,21.43,14.87,1.93,20.28,3.09,25.88,6.18,22.4,7.34,32.44S353.16,299.78,351,300.75a12.85,12.85,0,0,1-4.63,1s4.63-23.17,5.6-36.5S353,244,353,244,343.89,232.58,342.92,232Z" fill="none" stroke="#263238" stroke-linecap="round" stroke-linejoin="round" stroke-width="1"/>
      <rect id="Rectangle_19" data-name="Rectangle 19" width="8.88" height="17.77" rx="2.96" transform="translate(300.82 244.94)" fill="#fff" stroke="#263238" stroke-linecap="round" stroke-linejoin="round" stroke-width="1"/>
      <rect id="Rectangle_20" data-name="Rectangle 20" width="8.88" height="17.77" rx="2.96" transform="translate(355.09 244.94)" fill="#fff" stroke="#263238" stroke-linecap="round" stroke-linejoin="round" stroke-width="1"/>
      <path id="Path_152" data-name="Path 152" d="M360.3,244.94v-9.66a28.19,28.19,0,0,0-28.19-28.19h0a28.2,28.2,0,0,0-28.2,28.19v9.66" fill="none" stroke="#263238" stroke-linejoin="round" stroke-width="2"/>
      <path id="Path_153" data-name="Path 153" d="M359.53,262.62s-1.25,9.67-13.08,13.61" fill="none" stroke="#263238" stroke-linecap="round" stroke-linejoin="round" stroke-width="1"/>
      <path id="Path_154" data-name="Path 154" d="M346,275.81c.5,1.45-.91,3.25-3.16,4s-4.46.24-5-1.21.91-3.25,3.15-4S345.53,274.36,346,275.81Z" fill="none" stroke="#263238" stroke-linecap="round" stroke-linejoin="round" stroke-width="1"/>
    </g>
    <g id="freepik--character-1--inject-3">
      <path id="Path_155" data-name="Path 155" d="M143.6,288.28l-41.32,19.69L114.2,424.74h82.37l11.65-118.71L169.39,288Z" fill="#ff651c" stroke="#263238" stroke-linecap="round" stroke-linejoin="round" stroke-width="1"/>
      <circle id="Ellipse_6" data-name="Ellipse 6" cx="1.4" cy="1.4" r="1.4" transform="translate(158.76 321.11)" fill="#263238"/>
      <path id="Path_156" data-name="Path 156" d="M161.56,330.91a1.4,1.4,0,1,1-1.4-1.4A1.4,1.4,0,0,1,161.56,330.91Z" fill="#263238"/>
      <path id="Path_157" data-name="Path 157" d="M174.49,294.24,163.2,306.83l-4.82,12.23-5.19-12.41-10.92-12.41V272.2h32.22Z" fill="#fff" stroke="#263238" stroke-linecap="round" stroke-linejoin="round" stroke-width="1"/>
      <path id="Path_158" data-name="Path 158" d="M142.27,282a22.62,22.62,0,0,0,17.5,8.25h0a22.56,22.56,0,0,0,14.72-5.44V272.2H142.27Z" fill="#263238" stroke="#263238" stroke-linecap="round" stroke-linejoin="round" stroke-width="1"/>
      <rect id="Rectangle_21" data-name="Rectangle 21" width="45.38" height="73.53" rx="20.42" transform="translate(137.08 210.52)" fill="#fff" stroke="#263238" stroke-linecap="round" stroke-linejoin="round" stroke-width="1"/>
      <path id="Path_159" data-name="Path 159" d="M164.12,243.12l-.67,16.07a3.4,3.4,0,0,1-2.29,3.15c-1.21.37-2.59,0-3.34-2.73" fill="none" stroke="#263238" stroke-linecap="round" stroke-linejoin="round" stroke-width="1"/>
      <path id="Path_160" data-name="Path 160" d="M151,265.53h18s-3.15,6.86-9.26,6.86S151,265.53,151,265.53Z" fill="#263238" stroke="#263238" stroke-linecap="round" stroke-linejoin="round" stroke-width="1"/>
      <path id="Path_161" data-name="Path 161" d="M152.28,267.94h15.16a14.768,14.768,0,0,0,1.5-2.41H151A13.109,13.109,0,0,0,152.28,267.94Z" fill="#fff" stroke="#263238" stroke-linecap="round" stroke-linejoin="round" stroke-width="1"/>
      <ellipse id="Ellipse_7" data-name="Ellipse 7" cx="1.3" cy="3.06" rx="1.3" ry="3.06" transform="translate(149.49 244.23)" fill="#263238"/>
      <ellipse id="Ellipse_8" data-name="Ellipse 8" cx="1.3" cy="3.06" rx="1.3" ry="3.06" transform="translate(168.93 244.23)" fill="#263238"/>
      <path id="Path_162" data-name="Path 162" d="M166.16,239.23s4.44-2.78,9.45,1.67" fill="none" stroke="#263238" stroke-linecap="round" stroke-linejoin="round" stroke-width="1"/>
      <path id="Path_163" data-name="Path 163" d="M159.77,210.52h0a22.69,22.69,0,0,0-22.69,22.69v20.67h2.04v-8.52s9.26,0,20.19-5.92S173,223.86,173,223.86s2.41,11.67,5,13.89l2.6,2.22v14.08h1.85V233.21A22.69,22.69,0,0,0,159.77,210.52Z" fill="#263238" stroke="#263238" stroke-linecap="round" stroke-linejoin="round" stroke-width="1"/>
      <path id="Path_164" data-name="Path 164" d="M132.83,242.94h4.25v16.85h-4.25a4.08,4.08,0,0,1-4.08-4.08V247a4.08,4.08,0,0,1,4.08-4.06Z" fill="#fff" stroke="#263238" stroke-linecap="round" stroke-linejoin="round" stroke-width="1"/>
      <path id="Path_165" data-name="Path 165" d="M186.26,242.94h4.25v16.85h-4.25a4.08,4.08,0,0,1-4.08-4.08V247a4.08,4.08,0,0,1,4.08-4.06Z" transform="translate(372.7 502.73) rotate(180)" fill="#fff" stroke="#263238" stroke-linecap="round" stroke-linejoin="round" stroke-width="1"/>
      <path id="Path_166" data-name="Path 166" d="M133.38,242.94V232.19a26.3,26.3,0,0,1,26.3-26.3h0a26.31,26.31,0,0,1,26.3,26.3v10.75" fill="none" stroke="#263238" stroke-linejoin="round" stroke-width="2"/>
      <path id="Path_167" data-name="Path 167" d="M186,259.79s-1.3,10-13.52,14.08" fill="none" stroke="#263238" stroke-linecap="round" stroke-linejoin="round" stroke-width="1"/>
      <path id="Path_168" data-name="Path 168" d="M172,273.43c.52,1.5-.94,3.36-3.26,4.17s-4.62.24-5.14-1.26.94-3.36,3.26-4.17S171.51,271.93,172,273.43Z" fill="none" stroke="#263238" stroke-linecap="round" stroke-linejoin="round" stroke-width="1"/>
      <path id="Path_169" data-name="Path 169" d="M102.28,307.97,67.33,381.92,81.75,394.5l26.07-32.72Z" fill="#ff651c" stroke="#263238" stroke-linecap="round" stroke-linejoin="round" stroke-width="1"/>
      <path id="Path_170" data-name="Path 170" d="M99.41,330.64l8.49,28.64L97.82,342.83" fill="none" stroke="#263238" stroke-miterlimit="10" stroke-width="1"/>
      <path id="Path_171" data-name="Path 171" d="M208.22,306.03l33.28,74.33-20.52,8.88-18.31-29.4Z" fill="#ff651c" stroke="#263238" stroke-linecap="round" stroke-linejoin="round" stroke-width="1"/>
      <path id="Path_172" data-name="Path 172" d="M86.19,380.08l29.95,28.01-8.32,9.71L64.28,390.79l5-13.31" fill="#ff651c" stroke="#263238" stroke-linecap="round" stroke-linejoin="round" stroke-width="1"/>
      <path id="Path_173" data-name="Path 173" d="M111.15,406.43c1.22-.66,21.63-5.55,21.91-3.05s6.38,5.27,9.15,5.27,5.55-2.22,6.1,1.11-2.49,3.6-5,3.88-11.09-2.5-11.09-2.5-8,6.66-11.37,8.33-9.43,1.1-11.65-.56S103.94,410.31,111.15,406.43Z" fill="#fff" stroke="#263238" stroke-linecap="round" stroke-linejoin="round" stroke-width="1"/>
      <path id="Path_174" data-name="Path 174" d="M130,403.1s7.77-2.22,9.43-1.38,2.5,17.47,2.5,17.47-.84,1.66-2.5,0-7.2-14.19-7.2-14.19" fill="#fff" stroke="#263238" stroke-linecap="round" stroke-linejoin="round" stroke-width="1"/>
      <path id="Path_175" data-name="Path 175" d="M126.13,403.66s8-1.94,9.7,1.11,5.83,16.64,2.5,17.19-4.44-3.88-4.44-3.88l-5.27-9.71-3.6-.55" fill="#fff" stroke="#263238" stroke-linecap="round" stroke-linejoin="round" stroke-width="1"/>
      <path id="Path_176" data-name="Path 176" d="M123.35,406.15s3.89-1.66,5.83-.27S140,421.41,138.33,422s-5.55.28-6.1-.83-7.77-10.54-7.77-10.54" fill="#fff" stroke="#263238" stroke-linecap="round" stroke-linejoin="round" stroke-width="1"/>
      <path id="Path_177" data-name="Path 177" d="M120.58,410.87s3.61-3.33,5.55-2.22,10,11.65,8.32,12.76-2.78,0-4.44-2.22a19.43,19.43,0,0,0-4.16-3.89l-3.33,1.11" fill="#fff" stroke="#263238" stroke-linecap="round" stroke-linejoin="round" stroke-width="1"/>
      <path id="Path_178" data-name="Path 178" d="M215.95,373l-17.56,37.06,11.3,5.97,33.21-35.19-9.53-10.55" fill="#ff651c" stroke="#263238" stroke-linecap="round" stroke-linejoin="round" stroke-width="1"/>
      <path id="Path_179" data-name="Path 179" d="M207.18,406.43c-1.22-.66-21.64-5.55-21.91-3.05s-6.38,5.27-9.16,5.27-5.54-2.22-6.1,1.11,2.5,3.6,5,3.88,11.09-2.5,11.09-2.5,8,6.66,11.37,8.33,9.43,1.1,11.65-.56S214.39,410.31,207.18,406.43Z" fill="#fff" stroke="#263238" stroke-linecap="round" stroke-linejoin="round" stroke-width="1"/>
      <path id="Path_180" data-name="Path 180" d="M188.32,403.1s-7.77-2.22-9.43-1.38-2.5,17.47-2.5,17.47.83,1.66,2.5,0S186.1,405,186.1,405" fill="#fff" stroke="#263238" stroke-linecap="round" stroke-linejoin="round" stroke-width="1"/>
      <path id="Path_181" data-name="Path 181" d="M192.2,403.66s-8-1.94-9.71,1.11S176.67,421.41,180,422s4.43-3.88,4.43-3.88l5.27-9.71,3.61-.55" fill="#fff" stroke="#263238" stroke-linecap="round" stroke-linejoin="round" stroke-width="1"/>
      <path id="Path_182" data-name="Path 182" d="M195,406.15s-3.88-1.66-5.82-.27S178.33,421.41,180,422s5.54.28,6.1-.83,7.76-10.54,7.76-10.54" fill="#fff" stroke="#263238" stroke-linecap="round" stroke-linejoin="round" stroke-width="1"/>
      <path id="Path_183" data-name="Path 183" d="M197.75,410.87s-3.61-3.33-5.55-2.22-10,11.65-8.32,12.76,2.77,0,4.44-2.22a19.43,19.43,0,0,1,4.16-3.89l3.33,1.11" fill="#fff" stroke="#263238" stroke-linecap="round" stroke-linejoin="round" stroke-width="1"/>
    </g>
    <g id="freepik--text-balloon--inject-3">
      <path id="Path_184" data-name="Path 184" d="M259.66,168.21h-65a11.37,11.37,0,0,0-11.37,11.36v19A11.37,11.37,0,0,0,194.64,210h8l-10.91,14.27L216.26,210h43.4A11.37,11.37,0,0,0,271,198.6v-19A11.37,11.37,0,0,0,259.66,168.21Z" fill="#fff" stroke="#263238" stroke-miterlimit="10" stroke-width="1"/>
      <path id="Path_185" data-name="Path 185" d="M218.23,190.41a2.65,2.65,0,1,1-2.65-2.64,2.65,2.65,0,0,1,2.65,2.64Z" fill="#263238"/>
      <path id="Path_186" data-name="Path 186" d="M229.79,190.41a2.65,2.65,0,1,1-2.64-2.64,2.65,2.65,0,0,1,2.64,2.64Z" fill="#263238"/>
      <path id="Path_187" data-name="Path 187" d="M241.35,190.41a2.64,2.64,0,1,1-2.64-2.64A2.64,2.64,0,0,1,241.35,190.41Z" fill="#263238"/>
    </g>
    <g id="freepik--device-2--inject-3">
      <rect id="Rectangle_22" data-name="Rectangle 22" width="121.14" height="4.89" transform="translate(271.31 421.73)" fill="#fff" stroke="#263238" stroke-linecap="round" stroke-linejoin="round" stroke-width="1"/>
      <rect id="Rectangle_23" data-name="Rectangle 23" width="105.59" height="4.89" transform="translate(305.47 421.73)" fill="#fff" stroke="#263238" stroke-linecap="round" stroke-linejoin="round" stroke-width="1"/>
      <path id="Path_188" data-name="Path 188" d="M413.11,413.04H312.09l10.89-77.13H424Z" fill="#fff" stroke="#263238" stroke-linecap="round" stroke-linejoin="round" stroke-width="1"/>
      <path id="Path_189" data-name="Path 189" d="M417.29,413.04H316.27l10.89-77.13H428.18Z" fill="#263238" stroke="#263238" stroke-linecap="round" stroke-linejoin="round" stroke-width="1"/>
      <path id="Path_190" data-name="Path 190" d="M386.33,377.19l10.14,49.42H370.4l-10.13-49.42Zm-17.68,14.67a.92.92,0,0,0,.9.7l14.77-.14a.92.92,0,0,0,.88-1.14l-1.33-5.54a.93.93,0,0,0-.9-.71l-14.77.14a.93.93,0,0,0-.89,1.14Z" fill="#fff" stroke="#263238" stroke-linecap="round" stroke-linejoin="round" stroke-width="1"/>
    </g>
    <g id="freepik--device-1--inject-3">
      <rect id="Rectangle_24" data-name="Rectangle 24" width="121.14" height="4.89" transform="translate(92.13 421.73)" fill="#fff" stroke="#263238" stroke-linecap="round" stroke-linejoin="round" stroke-width="1"/>
      <rect id="Rectangle_25" data-name="Rectangle 25" width="105.59" height="4.89" transform="translate(126.29 421.73)" fill="#fff" stroke="#263238" stroke-linecap="round" stroke-linejoin="round" stroke-width="1"/>
      <path id="Path_191" data-name="Path 191" d="M233.93,413.04H132.91l10.89-77.13H244.82Z" fill="#fff" stroke="#263238" stroke-linecap="round" stroke-linejoin="round" stroke-width="1"/>
      <path id="Path_192" data-name="Path 192" d="M238.11,413.04H137.09l10.89-77.13H249Z" fill="#263238" stroke="#263238" stroke-linecap="round" stroke-linejoin="round" stroke-width="1"/>
      <path id="Path_193" data-name="Path 193" d="M207.16,377.19l10.13,49.42H191.22l-10.13-49.42Zm-17.69,14.67a.93.93,0,0,0,.9.7l14.77-.14a.93.93,0,0,0,.89-1.14l-1.34-5.54a.92.92,0,0,0-.9-.71l-14.77.14a.92.92,0,0,0-.88,1.14Z" fill="#fff" stroke="#263238" stroke-linecap="round" stroke-linejoin="round" stroke-width="1"/>
    </g>
    <g id="freepik--Table--inject-3">
      <rect id="Rectangle_26" data-name="Rectangle 26" width="430.92" height="4.84" transform="translate(29.83 426.61)" fill="#263238" stroke="#263238" stroke-linecap="round" stroke-linejoin="round" stroke-width="1"/>
    </g>
  </g>
</svg>
