<svg xmlns="http://www.w3.org/2000/svg" xmlns:xlink="http://www.w3.org/1999/xlink" width="500" height="500" viewBox="0 0 500 500">
  <defs>
    <clipPath id="clip-Artboard_1">
      <rect width="500" height="500"/>
    </clipPath>
  </defs>
  <g id="Artboard_1" data-name="Artboard 1" clip-path="url(#clip-Artboard_1)">
    <rect width="500" height="500" fill="#fff"/>
    <g id="Background_Simple" data-name="Background Simple">
      <g id="Group_1" data-name="Group 1">
        <path id="Path_1" data-name="Path 1" d="M215.416,26.715c-35.33,9.565-68.411,27.278-101.246,43.56C65.935,94.194,22.329,174.9,43.35,249.779S119.055,327.3,158.2,356.108s70.506,97.835,112.6,114.425c64.834,25.549,113.856,23.141,155.444-50.394,31.559-55.8,2.417-127.13,2.558-187.032.093-39.734,12.39-81.117,3.307-120.885-11.167-48.886-66.732-74.365-111.057-85.73a215.677,215.677,0,0,0-61.59-6.749A196.449,196.449,0,0,0,215.416,26.715Z" fill="#fec448"/>
        <path id="Path_2" data-name="Path 2" d="M215.416,26.715c-35.33,9.565-68.411,27.278-101.246,43.56C65.935,94.194,22.329,174.9,43.35,249.779S119.055,327.3,158.2,356.108s70.506,97.835,112.6,114.425c64.834,25.549,113.856,23.141,155.444-50.394,31.559-55.8,2.417-127.13,2.558-187.032.093-39.734,12.39-81.117,3.307-120.885-11.167-48.886-66.732-74.365-111.057-85.73a215.677,215.677,0,0,0-61.59-6.749A196.449,196.449,0,0,0,215.416,26.715Z" fill="#fff" opacity="0.7"/>
      </g>
    </g>
    <g id="Floor">
      <ellipse id="Ellipse_1" data-name="Ellipse 1" cx="228.839" cy="12.095" rx="228.839" ry="12.095" transform="translate(24.347 448.649)" fill="#263238" stroke="#263238" stroke-linecap="round" stroke-miterlimit="10" stroke-width="1"/>
    </g>
    <g id="Graduation_Cap" data-name="Graduation Cap">
      <g id="Group_3" data-name="Group 3">
        <path id="Path_3" data-name="Path 3" d="M424.108,254.41l-49.056,31.584L431.5,301.45l49.056-28.224Z" fill="#ff651c" stroke="#263238" stroke-linecap="round" stroke-linejoin="round" stroke-width="1"/>
        <path id="Path_4" data-name="Path 4" d="M428.189,269.4c-13.022,0-23.579,8.857-23.579,19.783v11.226c0-10.925,10.557-19.782,23.579-19.782s23.58,8.857,23.58,19.782V289.186C451.769,278.26,441.212,269.4,428.189,269.4Z" fill="#ff651c" stroke="#263238" stroke-linecap="round" stroke-linejoin="round" stroke-width="1"/>
        <ellipse id="Ellipse_2" data-name="Ellipse 2" cx="23.58" cy="19.782" rx="23.58" ry="19.782" transform="translate(404.61 280.63)" fill="#ff651c" stroke="#263238" stroke-linecap="round" stroke-linejoin="round" stroke-width="1"/>
        <ellipse id="Ellipse_3" data-name="Ellipse 3" cx="22.484" cy="13.812" rx="22.484" ry="13.812" transform="translate(405.705 280.63)" fill="#ff651c" stroke="#263238" stroke-linecap="round" stroke-linejoin="round" stroke-width="1"/>
        <g id="Group_2" data-name="Group 2">
          <line id="Line_1" data-name="Line 1" y2="38.224" transform="translate(480.233 273.685)" fill="#92e3a9" stroke="#263238" stroke-linecap="round" stroke-linejoin="round" stroke-width="1"/>
          <path id="Path_5" data-name="Path 5" d="M481.922,318.019c0,3.835-.746,6.943-1.666,6.943s-1.666-3.108-1.666-6.943.746-6.943,1.666-6.943S481.922,314.185,481.922,318.019Z" fill="#ff651c" stroke="#263238" stroke-linecap="round" stroke-linejoin="round" stroke-width="1"/>
        </g>
      </g>
    </g>
    <g id="DNA">
      <path id="Path_6" data-name="Path 6" d="M389.158,208.012c6.106,3.552,13.684,4.634,22.185,3.107a51.874,51.874,0,0,0,12.762-4.081l.151-.073.112-.055.112-.056.15-.076a51.917,51.917,0,0,0,10.981-7.679c6.366-5.835,10.1-12.519,10.973-19.529,6.1,3.553,13.684,4.634,22.184,3.107a50.871,50.871,0,0,0,13.288-4.341l-1.852-3.547a43.482,43.482,0,0,1-6.015,2.383L461.327,151.2a43.541,43.541,0,0,1,5.541-3.341l-1.7-3.622a50.808,50.808,0,0,0-11.505,7.939c-6.367,5.835-10.1,12.519-10.974,19.528-6.106-3.552-13.684-4.634-22.184-3.106a51.9,51.9,0,0,0-12.78,4.089l-.132.064-.114.056-.114.057-.131.066a51.87,51.87,0,0,0-11,7.688c-6.367,5.835-10.1,12.519-10.973,19.529-6.106-3.553-13.685-4.635-22.185-3.106a50.79,50.79,0,0,0-13.287,4.34l1.853,3.546a41.607,41.607,0,0,1,5.043-2.069l12.991,26.23a41.8,41.8,0,0,1-4.7,2.766l1.7,3.622a50.847,50.847,0,0,0,11.505-7.939C384.551,221.706,388.284,215.021,389.158,208.012ZM402.719,180.5l12.656,25.552A43.245,43.245,0,0,1,406.3,207.7l-10.39-20.976A43.452,43.452,0,0,1,402.719,180.5Zm6.537-4.1c.453-.222,1.776-.844,3.693-1.554l13.118,26.485a40.659,40.659,0,0,1-3.545,2.031,44.429,44.429,0,0,1-4.853,1.964l-12.984-26.215A44.041,44.041,0,0,1,409.256,176.4Zm18.8,23.6-12.844-25.932a44.339,44.339,0,0,1,10.338-2.028L435.939,193A44.359,44.359,0,0,1,428.061,199.995Zm43.81-22.143a43.052,43.052,0,0,1-7.773,1.358l-10.507-21.215a43.041,43.041,0,0,1,5.791-5.36ZM451.93,160l9.566,19.314a24.454,24.454,0,0,1-15-4.6A24.453,24.453,0,0,1,451.93,160Zm-9.151,16.558a24.311,24.311,0,0,1-5.194,14.407l-9.413-19.006A24.323,24.323,0,0,1,442.779,176.559Zm-48.517,12.2,9.417,19.014a24.324,24.324,0,0,1-14.61-4.609A24.32,24.32,0,0,1,394.262,188.756ZM385.353,205a24.272,24.272,0,0,1-5.146,14.331L370.829,200.4A24.288,24.288,0,0,1,385.353,205Zm-26.515-2.825a43.415,43.415,0,0,1,9.37-1.711l10.357,20.911a43.634,43.634,0,0,1-7.038,6.42Z" fill="#ff651c" stroke="#263238" stroke-linecap="round" stroke-linejoin="round" stroke-width="1"/>
    </g>
    <g id="Atom">
      <g id="Group_4" data-name="Group 4">
        <path id="Path_7" data-name="Path 7" d="M442.666,97.746a4.751,4.751,0,1,0,4.752,4.751A4.751,4.751,0,0,0,442.666,97.746Z" fill="#263238"/>
        <path id="Path_8" data-name="Path 8" d="M469.368,109.459a2.449,2.449,0,0,0-2.45-2.449,2.421,2.421,0,0,0-.787.141A45.913,45.913,0,0,0,463.7,102.5c5.664-9.555,6.912-18.769,2.322-23.36-2.836-2.835-7.435-3.444-12.788-2.162-2.879-4.692-6.562-7.513-10.572-7.513a9.436,9.436,0,0,0-5.16,1.628,2.442,2.442,0,1,0-3.592,3.308,23.645,23.645,0,0,0-1.819,2.577c-5.354-1.282-9.953-.673-12.788,2.162-4.588,4.588-3.344,13.794,2.311,23.343a42,42,0,0,0-3.789,8.1,24.966,24.966,0,0,0-1.324,6.55,2.441,2.441,0,1,0,.524,4.846,9.247,9.247,0,0,0,2.278,3.876,10.659,10.659,0,0,0,7.8,2.834,21.427,21.427,0,0,0,5-.649c2.877,4.679,6.554,7.491,10.557,7.491s7.7-2.824,10.576-7.52a21.736,21.736,0,0,0,5,.647,10.647,10.647,0,0,0,7.782-2.8c3.069-3.069,3.528-8.205,1.8-14.127A2.447,2.447,0,0,0,469.368,109.459ZM458.2,76.909a10.112,10.112,0,0,1,7.393,2.657c4.362,4.362,3.162,13.149-2.237,22.352a57.641,57.641,0,0,0-4.378-6.18c-.761-7.226-2.719-13.588-5.441-18.244A20.675,20.675,0,0,1,458.2,76.909Zm-4.18,36.947a60.565,60.565,0,0,1-11.356,8.993,60.593,60.593,0,0,1-11.361-8.993,64.685,64.685,0,0,1-4.379-4.84,65.355,65.355,0,0,1,0-13.039,64.752,64.752,0,0,1,4.379-4.838,60.522,60.522,0,0,1,11.358-8.985,60.494,60.494,0,0,1,11.359,8.985,64.494,64.494,0,0,1,4.378,4.84,65.335,65.335,0,0,1,0,13.037A64.889,64.889,0,0,1,454.025,113.856Zm4.254-3.751a45.046,45.046,0,0,1-5.314,17.255,38.474,38.474,0,0,1-9.7-4.159,61.349,61.349,0,0,0,11.193-8.917C455.818,112.919,457.091,111.52,458.279,110.105ZM442.1,123.19a41.115,41.115,0,0,1-7.713,3.569c-.69.23-1.363.424-2.024.594a45.068,45.068,0,0,1-5.309-17.248c1.187,1.415,2.46,2.814,3.825,4.179A60.925,60.925,0,0,0,442.1,123.19Zm-15.853-15.032a56.427,56.427,0,0,1-3.933-5.664,56.071,56.071,0,0,1,3.934-5.664c-.162,1.843-.251,3.734-.251,5.667S426.086,106.317,426.247,108.158Zm.807-13.275a45.06,45.06,0,0,1,5.309-17.241,38.42,38.42,0,0,1,9.722,4.162,60.974,60.974,0,0,0-11.206,8.906C429.525,92.065,428.25,93.461,427.054,94.883ZM443.246,81.8a38.431,38.431,0,0,1,9.724-4.162,45.069,45.069,0,0,1,5.309,17.247c-1.188-1.415-2.461-2.814-3.826-4.179A60.946,60.946,0,0,0,443.246,81.8Zm15.839,15.033a56.347,56.347,0,0,1,3.931,5.66,56.357,56.357,0,0,1-3.931,5.661c.161-1.841.25-3.73.25-5.661S459.246,98.677,459.085,96.837ZM434.347,74.765a2.437,2.437,0,0,0,3.491-3.2,8.918,8.918,0,0,1,4.828-1.5c3.773,0,7.244,2.646,9.988,7.059a39.678,39.678,0,0,0-9.988,4.332,39.677,39.677,0,0,0-9.988-4.332A22.637,22.637,0,0,1,434.347,74.765Zm-14.612,4.8a10.11,10.11,0,0,1,7.393-2.657,20.66,20.66,0,0,1,4.662.585,46.451,46.451,0,0,0-5.44,18.238,57.49,57.49,0,0,0-4.388,6.171C416.571,92.705,415.375,83.926,419.735,79.566Zm0,45.862a8.643,8.643,0,0,1-2.119-3.6,2.442,2.442,0,0,0-.508-4.679,24.418,24.418,0,0,1,1.3-6.378,41.055,41.055,0,0,1,3.565-7.7,57.467,57.467,0,0,0,4.38,6.184c.761,7.224,2.718,13.584,5.439,18.24C426.548,128.722,422.325,128.018,419.735,125.428Zm22.931,9.5c-3.765,0-7.229-2.636-9.97-7.031q.924-.245,1.883-.562a42.015,42.015,0,0,0,8.109-3.791,39.621,39.621,0,0,0,9.97,4.319C449.913,132.278,446.441,134.927,442.666,134.927Zm22.932-9.5c-2.668,2.668-6.994,3.251-12.055,2.071,2.721-4.656,4.679-11.017,5.44-18.243a57.64,57.64,0,0,0,4.378-6.18A45.386,45.386,0,0,1,465.6,107.4a2.445,2.445,0,0,0,1.314,4.51,2.361,2.361,0,0,0,.36-.037C468.949,117.577,468.526,122.5,465.6,125.428Z" fill="#263238"/>
      </g>
    </g>
    <g id="Microscope">
      <g id="Group_11" data-name="Group 11">
        <g id="Group_5" data-name="Group 5">
          <path id="Path_9" data-name="Path 9" d="M376.56,96.276l-2.241.483L372.7,94.685l4.482-.966Z" fill="#fff" stroke="#263238" stroke-linecap="round" stroke-linejoin="round" stroke-width="1"/>
          <rect id="Rectangle_1" data-name="Rectangle 1" width="4.585" height="10.837" transform="translate(370.391 83.964) rotate(-12.158)" fill="#fff" stroke="#263238" stroke-linecap="round" stroke-linejoin="round" stroke-width="1"/>
        </g>
        <g id="Group_6" data-name="Group 6">
          <path id="Path_10" data-name="Path 10" d="M368.743,96.356l-2.049-1.028.038-2.63,4.1,2.057Z" fill="#fff" stroke="#263238" stroke-linecap="round" stroke-linejoin="round" stroke-width="1"/>
          <rect id="Rectangle_2" data-name="Rectangle 2" width="4.585" height="10.837" transform="matrix(0.894, 0.449, -0.449, 0.894, 371.651, 82.895)" fill="#fff" stroke="#263238" stroke-linecap="round" stroke-linejoin="round" stroke-width="1"/>
        </g>
        <g id="Group_7" data-name="Group 7">
          <path id="Path_11" data-name="Path 11" d="M362.374,93.5l-2.049-1.028.038-2.63,4.1,2.057Z" fill="#fff" stroke="#263238" stroke-linecap="round" stroke-linejoin="round" stroke-width="1"/>
          <rect id="Rectangle_3" data-name="Rectangle 3" width="4.585" height="10.837" transform="translate(365.282 80.036) rotate(26.653)" fill="#fff" stroke="#263238" stroke-linecap="round" stroke-linejoin="round" stroke-width="1"/>
        </g>
        <rect id="Rectangle_4" data-name="Rectangle 4" width="34.167" height="8.32" transform="translate(331.771 114.959)" fill="#263238" stroke="#263238" stroke-linecap="round" stroke-linejoin="round" stroke-width="1"/>
        <g id="Group_8" data-name="Group 8">
          <path id="Rectangle_5" data-name="Rectangle 5" d="M0,0H47.449a8.134,8.134,0,0,1,8.134,8.134v6.259a0,0,0,0,1,0,0H0a0,0,0,0,1,0,0V0A0,0,0,0,1,0,0Z" transform="translate(339.949 133.753)" fill="#fff" stroke="#263238" stroke-linecap="round" stroke-linejoin="round" stroke-width="1"/>
          <line id="Line_2" data-name="Line 2" x1="40.891" transform="translate(354.201 140.916)" fill="none" stroke="#263238" stroke-linecap="round" stroke-linejoin="round" stroke-width="1"/>
        </g>
        <rect id="Rectangle_6" data-name="Rectangle 6" width="22.312" height="33.187" transform="translate(331.771 114.959)" fill="#263238" stroke="#263238" stroke-linecap="round" stroke-linejoin="round" stroke-width="1"/>
        <g id="Group_9" data-name="Group 9">
          <path id="Path_12" data-name="Path 12" d="M428.732,49.552,385.377,66.794l-1.8-4.558,43.355-17.242Z" fill="#263238" stroke="#263238" stroke-linecap="round" stroke-linejoin="round" stroke-width="1"/>
          <rect id="Rectangle_7" data-name="Rectangle 7" width="2.408" height="6.438" transform="matrix(0.93, -0.368, 0.368, 0.93, 410.312, 50.825)" fill="#fff" stroke="#263238" stroke-linecap="round" stroke-linejoin="round" stroke-width="1"/>
          <rect id="Rectangle_8" data-name="Rectangle 8" width="20.281" height="9.54" transform="translate(382.719 60.08) rotate(-21.596)" fill="#263238" stroke="#263238" stroke-linecap="round" stroke-linejoin="round" stroke-width="1"/>
        </g>
        <path id="Path_13" data-name="Path 13" d="M392.941,70.79l-6.224,9.128-24.9.83-30.084,52.491s-9.336-14.316-9.336-21.162v-.2a27.211,27.211,0,0,1,4.773-15.232L354.143,57.1h31.536Z" fill="#fff" stroke="#263238" stroke-linecap="round" stroke-linejoin="round" stroke-width="1"/>
        <line id="Line_3" data-name="Line 3" x1="47.511" transform="translate(345.43 70.79)" fill="none" stroke="#263238" stroke-linecap="round" stroke-linejoin="round" stroke-width="1"/>
        <rect id="Rectangle_9" data-name="Rectangle 9" width="15.56" height="4.979" transform="translate(363.272 52.08)" fill="#263238" stroke="#263238" stroke-linecap="round" stroke-linejoin="round" stroke-width="1"/>
        <g id="Group_10" data-name="Group 10">
          <path id="Path_14" data-name="Path 14" d="M331.871,114.576a3.958,3.958,0,0,1-3.395-5.985l15.545-26.048a3.957,3.957,0,1,1,6.8,4.055l-15.544,26.048A3.955,3.955,0,0,1,331.871,114.576Z" fill="#263238" stroke="#263238" stroke-linecap="round" stroke-linejoin="round" stroke-width="1"/>
        </g>
        <path id="Path_15" data-name="Path 15" d="M386.717,79.918,381.03,90.032l-19.957-7.983,5.672-9.453Z" fill="#263238" stroke="#263238" stroke-linecap="round" stroke-linejoin="round" stroke-width="1"/>
        <rect id="Rectangle_10" data-name="Rectangle 10" width="31.722" height="2.454" transform="translate(357.762 104.699)" fill="#263238" stroke="#263238" stroke-linecap="round" stroke-linejoin="round" stroke-width="1"/>
        <rect id="Rectangle_11" data-name="Rectangle 11" width="20.505" height="7.348" transform="translate(357.762 107.255)" fill="#fff" stroke="#263238" stroke-linecap="round" stroke-linejoin="round" stroke-width="1"/>
        <circle id="Ellipse_4" data-name="Ellipse 4" cx="7.348" cy="7.348" r="7.348" transform="translate(339.206 119.99) rotate(-14.459)" fill="#fff" stroke="#263238" stroke-linecap="round" stroke-linejoin="round" stroke-width="1"/>
        <path id="Path_16" data-name="Path 16" d="M363.967,118.871a3.247,3.247,0,1,0-3.247,3.247A3.248,3.248,0,0,0,363.967,118.871Z" fill="#fff" stroke="#263238" stroke-linecap="round" stroke-linejoin="round" stroke-width="1"/>
      </g>
    </g>
    <g id="Magnifying_glass" data-name="Magnifying glass">
      <g id="Group_12" data-name="Group 12">
        <path id="Path_17" data-name="Path 17" d="M212.735,79.008h0a5.253,5.253,0,0,1,1.726-7.337L250.773,50.26l4.083,6.38L220.12,80.514A5.253,5.253,0,0,1,212.735,79.008Z" fill="#263238" stroke="#263238" stroke-linejoin="round" stroke-width="1"/>
        <path id="Path_18" data-name="Path 18" d="M237.544,58.261l-23.083,13.41a5.252,5.252,0,1,0,5.659,8.843l22.11-15.341Z" fill="#fff" stroke="#263238" stroke-linejoin="round" stroke-width="1"/>
        <path id="Path_19" data-name="Path 19" d="M291.008,29.006a24.081,24.081,0,1,0-7.3,33.264A24.081,24.081,0,0,0,291.008,29.006ZM255.389,51.8a18.208,18.208,0,1,1,25.151,5.521A18.209,18.209,0,0,1,255.389,51.8Z" fill="#263238" stroke="#263238" stroke-linejoin="round" stroke-width="1"/>
      </g>
    </g>
    <g id="Books">
      <g id="Group_14" data-name="Group 14">
        <g id="Group_13" data-name="Group 13">
          <path id="Path_20" data-name="Path 20" d="M120.614,53.95l-1.77,1.489,25.389,31.922,23.756-15.938-15.97-19.287Z" fill="#fff" stroke="#263238" stroke-linecap="round" stroke-linejoin="round" stroke-width="1"/>
          <path id="Path_21" data-name="Path 21" d="M155.24,66.046,143.352,88.935l42.454-15.307,14.277-22.433Z" fill="#ff651c" stroke="#263238" stroke-linecap="round" stroke-linejoin="round" stroke-width="1"/>
        </g>
        <path id="Path_22" data-name="Path 22" d="M143.352,88.935l-26.68-33.4,2.171-.1,25.389,31.922Z" fill="#92e3a9" stroke="#263238" stroke-linecap="round" stroke-linejoin="round" stroke-width="1"/>
        <path id="Path_23" data-name="Path 23" d="M144.545,83.38,120.614,53.95l-1.77,1.489,25.389,31.922L155.24,66.046l42.1-13.985-1.448-2.816L153.5,62.359Z" fill="#fff" stroke="#263238" stroke-linecap="round" stroke-linejoin="round" stroke-width="1"/>
        <path id="Path_24" data-name="Path 24" d="M144.545,83.38l3.348-22.529,45.252-13.224-1.488,2.855L153.5,62.359Z" fill="#fff" stroke="#263238" stroke-linecap="round" stroke-linejoin="round" stroke-width="1"/>
      </g>
      <g id="Group_16" data-name="Group 16">
        <g id="Group_15" data-name="Group 15">
          <path id="Path_25" data-name="Path 25" d="M158.731,88.137l-17.524,35.056,34.969,19.713,19.068-35.5Z" fill="#263238" stroke="#263238" stroke-linecap="round" stroke-linejoin="round" stroke-width="1"/>
          <path id="Path_26" data-name="Path 26" d="M195.243,107.408,220.6,92.8l-20.691,33.876-23.733,16.228Z" fill="#263238" stroke="#263238" stroke-linecap="round" stroke-linejoin="round" stroke-width="1"/>
          <path id="Path_27" data-name="Path 27" d="M160.353,88.949l.933-1.531,33.754,16.542,21.95-12.1,1.783,1.753-23.53,13.794Z" fill="#fff" stroke="#263238" stroke-linecap="round" stroke-linejoin="round" stroke-width="1"/>
        </g>
        <path id="Path_28" data-name="Path 28" d="M195.04,103.959a11.234,11.234,0,0,1,5.341-7.036c4.6-2.76,14.258-6.286,14.258-6.286l-2.913,4.139Z" fill="#fff" stroke="#263238" stroke-linecap="round" stroke-linejoin="round" stroke-width="1"/>
        <path id="Path_29" data-name="Path 29" d="M195.04,103.959s-3.4-5.81-8.3-7.8-14.871-5.212-17.938-6.9a47.074,47.074,0,0,0-5.519-2.606l-1.993.766Z" fill="#fff" stroke="#263238" stroke-linecap="round" stroke-linejoin="round" stroke-width="1"/>
      </g>
    </g>
    <g id="Chart">
      <g id="Group_17" data-name="Group 17">
        <rect id="Rectangle_12" data-name="Rectangle 12" width="11.789" height="31.153" transform="translate(44.47 110.096)" fill="#ff651c" stroke="#263238" stroke-linecap="round" stroke-linejoin="round" stroke-width="1"/>
        <rect id="Rectangle_13" data-name="Rectangle 13" width="11.789" height="23.249" transform="translate(62.996 118.001)" fill="#263238" stroke="#263238" stroke-linecap="round" stroke-linejoin="round" stroke-width="1"/>
        <rect id="Rectangle_14" data-name="Rectangle 14" width="11.789" height="34.936" transform="translate(81.522 106.314)" fill="#ff651c" stroke="#263238" stroke-linecap="round" stroke-linejoin="round" stroke-width="1"/>
        <rect id="Rectangle_15" data-name="Rectangle 15" width="11.789" height="42.947" transform="translate(100.049 98.302)" fill="#263238" stroke="#263238" stroke-linecap="round" stroke-linejoin="round" stroke-width="1"/>
        <path id="Path_30" data-name="Path 30" d="M37.305,99.627v45.466h84.753" fill="none" stroke="#263238" stroke-miterlimit="10" stroke-width="1"/>
        <path id="Path_31" data-name="Path 31" d="M45.692,97.861l22.513,7.5,34.431-21.63" fill="none" stroke="#263238" stroke-miterlimit="10" stroke-width="4"/>
        <path id="Path_32" data-name="Path 32" d="M100.87,78.88l5.3,9.27L112.788,78Z" fill="#263238" stroke="#263238" stroke-linecap="round" stroke-linejoin="round" stroke-width="1"/>
        <line id="Line_4" data-name="Line 4" y2="6.18" transform="translate(45.251 144.652)" fill="none" stroke="#263238" stroke-miterlimit="10" stroke-width="1"/>
        <line id="Line_5" data-name="Line 5" y2="6.18" transform="translate(57.169 144.652)" fill="none" stroke="#263238" stroke-miterlimit="10" stroke-width="1"/>
        <line id="Line_6" data-name="Line 6" y2="6.18" transform="translate(69.088 144.652)" fill="none" stroke="#263238" stroke-miterlimit="10" stroke-width="1"/>
        <line id="Line_7" data-name="Line 7" y2="6.18" transform="translate(81.006 144.652)" fill="none" stroke="#263238" stroke-miterlimit="10" stroke-width="1"/>
        <line id="Line_8" data-name="Line 8" y2="6.18" transform="translate(92.925 144.652)" fill="none" stroke="#263238" stroke-miterlimit="10" stroke-width="1"/>
        <line id="Line_9" data-name="Line 9" y2="6.18" transform="translate(104.843 144.652)" fill="none" stroke="#263238" stroke-miterlimit="10" stroke-width="1"/>
        <line id="Line_10" data-name="Line 10" y2="6.18" transform="translate(116.761 144.652)" fill="none" stroke="#263238" stroke-miterlimit="10" stroke-width="1"/>
        <line id="Line_11" data-name="Line 11" x1="4.856" transform="translate(32.45 139.796)" fill="none" stroke="#263238" stroke-miterlimit="10" stroke-width="1"/>
        <line id="Line_12" data-name="Line 12" x1="4.856" transform="translate(32.45 130.085)" fill="none" stroke="#263238" stroke-miterlimit="10" stroke-width="1"/>
        <line id="Line_13" data-name="Line 13" x1="4.856" transform="translate(32.45 120.373)" fill="none" stroke="#263238" stroke-miterlimit="10" stroke-width="1"/>
        <line id="Line_14" data-name="Line 14" x1="4.856" transform="translate(32.45 110.662)" fill="none" stroke="#263238" stroke-miterlimit="10" stroke-width="1"/>
      </g>
    </g>
    <g id="Speech_Bubble" data-name="Speech Bubble">
      <g id="Group_19" data-name="Group 19">
        <path id="Path_33" data-name="Path 33" d="M122.683,208.182,102.4,197.172V175.008a8.74,8.74,0,0,0-8.74-8.74H53.678a8.74,8.74,0,0,0-8.74,8.74v41.335a8.74,8.74,0,0,0,8.74,8.74H93.661a8.74,8.74,0,0,0,8.74-8.74v-1.4Z" fill="#ff651c" stroke="#263238" stroke-linecap="round" stroke-linejoin="round" stroke-width="1"/>
        <g id="Group_18" data-name="Group 18">
          <g id="Path_34" data-name="Path 34" fill="#fff" stroke-linecap="round" stroke-miterlimit="10">
            <path d="M 77.61399841308594 218.0279998779297 L 77.11399841308594 218.0279998779297 L 68.7449951171875 218.0279998779297 L 68.2449951171875 218.0279998779297 L 68.2449951171875 217.5279998779297 L 68.2449951171875 209.3690032958984 L 68.2449951171875 208.8690032958984 L 68.7449951171875 208.8690032958984 L 77.11399841308594 208.8690032958984 L 77.61399841308594 208.8690032958984 L 77.61399841308594 209.3690032958984 L 77.61399841308594 217.5279998779297 L 77.61399841308594 218.0279998779297 Z M 77.29799652099609 206.8159942626953 L 76.79799652099609 206.8159942626953 L 69.00799560546875 206.8159942626953 L 68.50799560546875 206.8159942626953 L 68.50799560546875 206.3159942626953 L 68.50799560546875 199.5249938964844 L 68.50799560546875 199.2803192138672 L 68.70120239257812 199.1301879882812 C 70.24392700195312 197.9313812255859 71.65239715576172 196.5748291015625 72.88746643066406 195.0982208251953 C 74.11448669433594 193.6343231201172 75.09870910644531 192.0552368164062 75.81312561035156 190.4044189453125 C 76.51908111572266 188.7741241455078 76.87699890136719 187.0611572265625 76.87699890136719 185.3130035400391 C 76.87699890136719 184.1384124755859 76.67617797851562 183.2975311279297 76.28010559082031 182.813720703125 C 75.90235900878906 182.3523101806641 75.34854125976562 182.1280059814453 74.58699798583984 182.1280059814453 C 73.88016510009766 182.1280059814453 73.35257720947266 182.3190002441406 72.97409820556641 182.7118988037109 C 72.58979797363281 183.1107788085938 72.40299987792969 183.6688385009766 72.40299987792969 184.4179992675781 C 72.40299987792969 184.932861328125 72.45864105224609 185.3920440673828 72.56838226318359 185.7828216552734 C 72.68766784667969 186.2095642089844 72.83474731445312 186.6674346923828 73.00567626953125 187.144287109375 L 73.19535064697266 187.6734619140625 L 72.64768981933594 187.8001403808594 L 64.90969085693359 189.5901336669922 L 64.46666717529297 189.6926116943359 L 64.32271575927734 189.2612762451172 C 64.03730010986328 188.4060516357422 63.81052780151367 187.5621643066406 63.64870834350586 186.7530517578125 C 63.48500823974609 185.9356079101562 63.40200042724609 185.0614471435547 63.40200042724609 184.1549987792969 C 63.40200042724609 180.9354248046875 64.4034423828125 178.376708984375 66.37848663330078 176.5499420166016 C 68.34236145019531 174.7325439453125 71.17511749267578 173.8110046386719 74.79799652099609 173.8110046386719 C 78.45835113525391 173.8110046386719 81.32971954345703 174.7972412109375 83.33235931396484 176.7423248291016 C 85.336181640625 178.6926879882812 86.35199737548828 181.4876708984375 86.35199737548828 185.0500030517578 C 86.35199737548828 187.2033081054688 85.98761749267578 189.2806701660156 85.26896667480469 191.2243804931641 C 84.55028533935547 193.1616668701172 83.487548828125 195.0147705078125 82.11009216308594 196.7327575683594 C 80.78671264648438 198.3823547363281 79.16858673095703 199.9526824951172 77.29799652099609 201.4031372070312 L 77.29799652099609 206.3159942626953 L 77.29799652099609 206.8159942626953 Z" stroke="none"/>
            <path d="M 77.11399841308594 217.5279998779297 L 77.11399841308594 209.3690032958984 L 68.7449951171875 209.3690032958984 L 68.7449951171875 217.5279998779297 L 77.11399841308594 217.5279998779297 M 76.79799652099609 206.3159942626953 L 76.79799652099609 201.1569976806641 C 78.72799682617188 199.6829986572266 80.36899566650391 198.10400390625 81.72000122070312 196.4199981689453 C 83.07099914550781 194.7350006103516 84.09700012207031 192.9459991455078 84.79999542236328 191.0509948730469 C 85.50099945068359 189.1549987792969 85.85199737548828 187.1549987792969 85.85199737548828 185.0500030517578 C 85.85199737548828 181.6109924316406 84.89601135253906 178.9620056152344 82.98400115966797 177.1009979248047 C 81.06999969482422 175.2420043945312 78.34199523925781 174.3110046386719 74.79799652099609 174.3110046386719 C 71.28900146484375 174.3110046386719 68.59500122070312 175.1799926757812 66.71800231933594 176.9170074462891 C 64.83999633789062 178.6540069580078 63.90200042724609 181.0670013427734 63.90200042724609 184.1549987792969 C 63.90200042724609 185.0319976806641 63.98099899291992 185.8659973144531 64.13899993896484 186.6549987792969 C 64.2969970703125 187.4450073242188 64.51599884033203 188.2610015869141 64.7969970703125 189.1029968261719 L 72.53499603271484 187.3130035400391 C 72.35900115966797 186.8220062255859 72.20999908447266 186.3580017089844 72.08699798583984 185.9179992675781 C 71.96399688720703 185.4799957275391 71.90299987792969 184.9799957275391 71.90299987792969 184.4179992675781 C 71.90299987792969 183.5420074462891 72.13999938964844 182.8569946289062 72.61399841308594 182.3650054931641 C 73.08699798583984 181.8739929199219 73.7449951171875 181.6280059814453 74.58699798583984 181.6280059814453 C 75.5 181.6280059814453 76.19300079345703 181.9179992675781 76.66699981689453 182.4969940185547 C 77.14099884033203 183.0760040283203 77.37699890136719 184.0149993896484 77.37699890136719 185.3130035400391 C 77.37699890136719 187.1380004882812 77.00900268554688 188.9010009765625 76.27199554443359 190.6029968261719 C 75.53499603271484 192.3059997558594 74.53499603271484 193.9109954833984 73.27099609375 195.4190063476562 C 72.00799560546875 196.9290008544922 70.58699798583984 198.2980041503906 69.00799560546875 199.5249938964844 L 69.00799560546875 206.3159942626953 L 76.79799652099609 206.3159942626953 M 78.11399841308594 218.5279998779297 L 67.7449951171875 218.5279998779297 L 67.7449951171875 208.3690032958984 L 78.11399841308594 208.3690032958984 L 78.11399841308594 218.5279998779297 Z M 77.79799652099609 207.3159942626953 L 68.00799560546875 207.3159942626953 L 68.00799560546875 199.0356292724609 L 68.3944091796875 198.7353820800781 C 69.90904998779297 197.5583953857422 71.29170227050781 196.2267456054688 72.50395202636719 194.7774200439453 C 73.70027160644531 193.3501586914062 74.65901947021484 191.8123168945312 75.354248046875 190.2058258056641 C 76.03292846679688 188.6385345458984 76.37699890136719 186.9924163818359 76.37699890136719 185.3130035400391 C 76.37699890136719 183.9975280761719 76.11392211914062 183.4000396728516 75.89321899414062 183.1304473876953 C 75.71663665771484 182.9147644042969 75.38912200927734 182.6280059814453 74.58699798583984 182.6280059814453 C 74.02321624755859 182.6280059814453 73.61342620849609 182.7689208984375 73.33419036865234 183.0587921142578 C 73.04402923583984 183.3599548339844 72.90299987792969 183.8045501708984 72.90299987792969 184.4179992675781 C 72.90299987792969 184.8871612548828 72.95237731933594 185.3008575439453 73.04975891113281 185.6476287841797 C 73.16600799560547 186.0635070800781 73.30942535400391 186.5099029541016 73.47634887695312 186.9755706787109 L 73.85570526123047 188.0338897705078 L 64.13632965087891 190.2822418212891 L 63.84843063354492 189.4195709228516 C 63.55645751953125 188.544677734375 63.32429885864258 187.6805419921875 63.15842056274414 186.8511047363281 C 62.98828887939453 186.0015411376953 62.90200042724609 185.0943450927734 62.90200042724609 184.1549987792969 C 62.90200042724609 180.7903594970703 63.95743942260742 178.1081390380859 66.03898620605469 176.1828765869141 C 68.09813690185547 174.2772979736328 71.04515838623047 173.3110046386719 74.79799652099609 173.3110046386719 C 78.59294891357422 173.3110046386719 81.58152770996094 174.3447875976562 83.68071746826172 176.3836517333984 C 85.7852783203125 178.4320678710938 86.85199737548828 181.3476104736328 86.85199737548828 185.0500030517578 C 86.85199737548828 187.2626800537109 86.47718048095703 189.3983764648438 85.73794555664062 191.3977813720703 C 85.00041198730469 193.3858642578125 83.91120147705078 195.2856903076172 82.50019073486328 197.0455322265625 C 81.19817352294922 198.6684875488281 79.61785125732422 200.2147369384766 77.79799652099609 201.6470184326172 L 77.79799652099609 207.3159942626953 Z" stroke="none" fill="#263238"/>
          </g>
        </g>
      </g>
    </g>
    <g id="Light_bulb" data-name="Light bulb">
      <g id="Group_23" data-name="Group 23">
        <g id="Group_22" data-name="Group 22">
          <g id="Group_20" data-name="Group 20">
            <path id="Path_35" data-name="Path 35" d="M88.165,277.807a22.21,22.21,0,1,0-39.274,14.208,21.808,21.808,0,0,1,5.059,13.974v3.043H77.96v-3.043a21.776,21.776,0,0,1,5.049-13.962A22.1,22.1,0,0,0,88.165,277.807Z" fill="#ff651c" stroke="#263238" stroke-linecap="round" stroke-miterlimit="10" stroke-width="1"/>
            <rect id="Rectangle_16" data-name="Rectangle 16" width="24.01" height="5.939" transform="translate(53.951 309.039)" fill="#fff" stroke="#263238" stroke-linecap="round" stroke-linejoin="round" stroke-width="0.75"/>
            <path id="Rectangle_17" data-name="Rectangle 17" d="M0,0H24.01a0,0,0,0,1,0,0V3.43A2.509,2.509,0,0,1,21.5,5.939H2.509A2.509,2.509,0,0,1,0,3.43V0A0,0,0,0,1,0,0Z" transform="translate(53.951 314.992)" fill="#fff" stroke="#263238" stroke-linecap="round" stroke-linejoin="round" stroke-width="0.75"/>
            <path id="Rectangle_18" data-name="Rectangle 18" d="M0,0H17.951a0,0,0,0,1,0,0V3.43a2.509,2.509,0,0,1-2.509,2.509H2.509A2.509,2.509,0,0,1,0,3.43V0A0,0,0,0,1,0,0Z" transform="translate(56.98 320.924)" fill="#fff" stroke="#263238" stroke-linecap="round" stroke-linejoin="round" stroke-width="0.75"/>
          </g>
          <g id="Group_21" data-name="Group 21">
            <line id="Line_15" data-name="Line 15" x2="10.173" transform="translate(91.317 277.923)" fill="none" stroke="#263238" stroke-linecap="round" stroke-linejoin="round" stroke-width="0.75"/>
            <line id="Line_16" data-name="Line 16" x2="10.304" transform="translate(29.467 277.923)" fill="none" stroke="#263238" stroke-linecap="round" stroke-linejoin="round" stroke-width="0.75"/>
            <line id="Line_17" data-name="Line 17" y1="10.202" transform="translate(65.479 241.912)" fill="none" stroke="#263238" stroke-linecap="round" stroke-linejoin="round" stroke-width="0.75"/>
            <line id="Line_18" data-name="Line 18" y1="7.023" x2="7.023" transform="translate(83.92 252.459)" fill="none" stroke="#263238" stroke-linecap="round" stroke-linejoin="round" stroke-width="0.75"/>
            <line id="Line_19" data-name="Line 19" y1="7.125" x2="7.125" transform="translate(40.015 296.262)" fill="none" stroke="#263238" stroke-linecap="round" stroke-linejoin="round" stroke-width="0.75"/>
            <line id="Line_20" data-name="Line 20" x1="6.82" y1="6.82" transform="translate(40.015 252.459)" fill="none" stroke="#263238" stroke-linecap="round" stroke-linejoin="round" stroke-width="0.75"/>
            <line id="Line_21" data-name="Line 21" x1="6.791" y1="6.791" transform="translate(84.152 296.596)" fill="none" stroke="#263238" stroke-linecap="round" stroke-linejoin="round" stroke-width="0.75"/>
          </g>
        </g>
      </g>
    </g>
    <g id="Arrows">
      <g id="Group_24" data-name="Group 24">
        <path id="Path_36" data-name="Path 36" d="M148.7,172.181l39.213,18.046,1.006-10.328,18.449,21.673-26.979,6.535,4.565-9.846-41.5-9.613,8.4-6.2Z" fill="none" stroke="#263238" stroke-linecap="round" stroke-linejoin="round" stroke-width="1"/>
        <path id="Path_37" data-name="Path 37" d="M271.284,74.038l-4.689,32.2,10.093-2.41-14.491,24.5L247.24,104.945l10.8,1.113-4.03-31.626,8.592,5.926Z" fill="none" stroke="#263238" stroke-linecap="round" stroke-linejoin="round" stroke-width="1"/>
        <path id="Path_38" data-name="Path 38" d="M125.722,255.8l42.352-8.342-5.235-8.96,27.647,6.759-18.038,21.1L170.382,255.7l-39.27,16.52,3.178-9.942Z" fill="none" stroke="#263238" stroke-linecap="round" stroke-linejoin="round" stroke-width="1"/>
        <path id="Path_39" data-name="Path 39" d="M357.381,172.181l-39.213,18.046L317.162,179.9l-18.449,21.673,26.978,6.535-4.564-9.846,41.5-9.613-8.4-6.2Z" fill="none" stroke="#263238" stroke-linecap="round" stroke-linejoin="round" stroke-width="1"/>
        <path id="Path_40" data-name="Path 40" d="M380.361,255.8l-42.352-8.342,5.235-8.96L315.6,245.256l18.038,21.1L335.7,255.7l39.269,16.52-3.178-9.942Z" fill="none" stroke="#263238" stroke-linecap="round" stroke-linejoin="round" stroke-width="1"/>
      </g>
    </g>
    <g id="Character">
      <g id="Group_42" data-name="Group 42">
        <g id="Group_27" data-name="Group 27">
          <g id="Group_26" data-name="Group 26">
            <path id="Path_41" data-name="Path 41" d="M226.509,268.306s-20.352,1.105-27.568,5.163-8.568,27.962-8.568,27.962l-28,55.152S109.94,369.366,103.6,370.325s-10.693-.778-16.361.786-5.951,2.444-10.184,7.128-6.122,9.208-4.481,10.083,5.618-2.661,6.828-4a40.644,40.644,0,0,1,4.6-3.745s-3.048,9.8-4.4,14.466c-2.831,9.764-4.812-7.718-7.29-5.812-3.218,2.475-.963,16.818,7.254,15.124s12.27-1.5,15.564-5.821,10.421-14.9,10.421-14.9,29.344-2.035,46.176-3.845,31.659-9.584,37.239-14.976c4.954-4.786,21.7-40.384,21.7-40.384L226,283.842S230.173,275.319,226.509,268.306Z" fill="#fff" stroke="#263238" stroke-linecap="round" stroke-miterlimit="10" stroke-width="1"/>
            <path id="Path_42" data-name="Path 42" d="M80.657,400.124a28.349,28.349,0,0,1-2.851,2.138,15.348,15.348,0,0,1-4.787,1.324c-4.2.59-5.7,2.343-4.684,3.463s2.851.916,6.721.916a14.728,14.728,0,0,0,8.045-2.749,17.024,17.024,0,0,0,3.259-2.954" fill="#fff" stroke="#263238" stroke-linecap="round" stroke-miterlimit="10" stroke-width="1"/>
            <path id="Path_43" data-name="Path 43" d="M84.872,400.417A28.344,28.344,0,0,1,82.32,402.9a9.977,9.977,0,0,1-4.576,1.929c-2.121.276-5.354,3.058-4.2,4.038s2.946.541,6.784.043a14.728,14.728,0,0,0,7.624-3.764A17,17,0,0,0,90.8,401.8" fill="#fff" stroke="#263238" stroke-linecap="round" stroke-miterlimit="10" stroke-width="1"/>
            <g id="Group_25" data-name="Group 25">
              <path id="Path_44" data-name="Path 44" d="M97.325,376.8s-3.535.8-5.966,6.341-.783,16.187-2.35,16.883-3.068.278-4.943-.244-4.887-.928-4.191,1.3c1.53,4.9,10.007,3.013,10.007,3.013s1.282-.182,4.456-4.684,10.277-14.833,10.277-14.833" fill="#fff"/>
              <path id="Path_45" data-name="Path 45" d="M97.325,376.8s-3.535.8-5.966,6.341-.783,16.187-2.35,16.883-3.068.278-4.943-.244-4.887-.928-4.191,1.3c1.53,4.9,10.007,3.013,10.007,3.013s1.282-.182,4.456-4.684,10.277-14.833,10.277-14.833" fill="none" stroke="#263238" stroke-linecap="round" stroke-miterlimit="10" stroke-width="1"/>
            </g>
          </g>
          <line id="Line_22" data-name="Line 22" x1="5.921" y1="19.18" transform="translate(203.008 303.1)" fill="none" stroke="#263238" stroke-linecap="round" stroke-miterlimit="10" stroke-width="1"/>
        </g>
        <g id="Group_30" data-name="Group 30">
          <g id="Group_29" data-name="Group 29">
            <path id="Path_46" data-name="Path 46" d="M280.8,268.306s20.351,1.105,27.567,5.163,8.569,27.962,8.569,27.962l28,55.152s52.428,12.783,58.766,13.742,10.692-.778,16.36.786,5.951,2.444,10.184,7.128,6.122,9.208,4.481,10.083-5.618-2.661-6.827-4a40.735,40.735,0,0,0-4.6-3.745s3.047,9.8,4.4,14.466c2.832,9.764,4.813-7.718,7.291-5.812,3.217,2.475.962,16.818-7.254,15.124s-12.27-1.5-15.564-5.821-10.422-14.9-10.422-14.9-29.344-2.035-46.175-3.845-31.66-9.584-37.24-14.976c-4.954-4.786-21.7-40.384-21.7-40.384l-15.334-40.59S277.14,275.319,280.8,268.306Z" fill="#fff" stroke="#263238" stroke-linecap="round" stroke-miterlimit="10" stroke-width="1"/>
            <path id="Path_47" data-name="Path 47" d="M426.656,400.124a28.276,28.276,0,0,0,2.852,2.138,15.332,15.332,0,0,0,4.786,1.324c4.2.59,5.7,2.343,4.685,3.463s-2.852.916-6.722.916a14.728,14.728,0,0,1-8.045-2.749,17.023,17.023,0,0,1-3.259-2.954" fill="#fff" stroke="#263238" stroke-linecap="round" stroke-miterlimit="10" stroke-width="1"/>
            <path id="Path_48" data-name="Path 48" d="M422.441,400.417a28.342,28.342,0,0,0,2.552,2.488,9.981,9.981,0,0,0,4.577,1.929c2.12.276,5.353,3.058,4.2,4.038s-2.946.541-6.784.043a14.732,14.732,0,0,1-7.624-3.764,17.033,17.033,0,0,1-2.851-3.348" fill="#fff" stroke="#263238" stroke-linecap="round" stroke-miterlimit="10" stroke-width="1"/>
            <g id="Group_28" data-name="Group 28">
              <path id="Path_49" data-name="Path 49" d="M409.989,376.8s3.534.8,5.965,6.341.783,16.187,2.351,16.883,3.067.278,4.942-.244,4.887-.928,4.191,1.3c-1.53,4.9-10.007,3.013-10.007,3.013s-1.281-.182-4.456-4.684S402.7,384.583,402.7,384.583" fill="#fff"/>
              <path id="Path_50" data-name="Path 50" d="M409.989,376.8s3.534.8,5.965,6.341.783,16.187,2.351,16.883,3.067.278,4.942-.244,4.887-.928,4.191,1.3c-1.53,4.9-10.007,3.013-10.007,3.013s-1.281-.182-4.456-4.684S402.7,384.583,402.7,384.583" fill="none" stroke="#263238" stroke-linecap="round" stroke-miterlimit="10" stroke-width="1"/>
            </g>
          </g>
          <line id="Line_23" data-name="Line 23" y1="19.18" x2="5.92" transform="translate(298.385 303.1)" fill="none" stroke="#263238" stroke-linecap="round" stroke-miterlimit="10" stroke-width="1"/>
        </g>
        <path id="Path_51" data-name="Path 51" d="M240.223,240.857s3.865,10.486-.452,17.58-13.262,9.869-13.262,9.869l-17.58,53.973,9.252,36.394s-16.346,24.981-22.823,40.094,1.308,32.221,8.093,39.315,15.785,16.687,38.786,15.785c32.008-1.256,54.765,1.655,64.943-10.373s11.274-34.727-.9-51.864c-7.4-10.418-17.469-32.957-17.469-32.957l10.02-37.521-15.308-52.936s-9.208-.527-14.759-7.312-.319-19.122-.319-19.122Z" fill="#fff" stroke="#263238" stroke-linecap="round" stroke-miterlimit="10" stroke-width="1"/>
        <path id="Path_52" data-name="Path 52" d="M255.316,255.176a31.021,31.021,0,0,0,11.031-2.033c-1.342-5.74,2.1-11.361,2.1-11.361l-28.22-.925s3.1,5.532,1.277,11.151C245.218,254.147,250.724,255.176,255.316,255.176Z" fill="#263238"/>
        <g id="Group_32" data-name="Group 32">
          <g id="Group_31" data-name="Group 31">
            <ellipse id="Ellipse_5" data-name="Ellipse 5" cx="16.557" cy="14.622" rx="16.557" ry="14.622" transform="translate(243.709 133.472)" fill="#263238" stroke="#263238" stroke-linecap="round" stroke-miterlimit="10" stroke-width="1"/>
            <path id="Path_53" data-name="Path 53" d="M229.957,210.419s-5.646-4.619-5.646,4.106a14.161,14.161,0,0,0,6.672,12.318Z" fill="#fff" stroke="#263238" stroke-linecap="round" stroke-miterlimit="10" stroke-width="1"/>
            <path id="Path_54" data-name="Path 54" d="M279.742,210.419s5.646-4.619,5.646,4.106a14.161,14.161,0,0,1-6.672,12.318Z" fill="#fff" stroke="#263238" stroke-linecap="round" stroke-miterlimit="10" stroke-width="1"/>
            <path id="Path_55" data-name="Path 55" d="M258.76,158.845s-23.652-1.72-31.393,7.311,3.144,48.478,3.144,48.478h50.612s6.02-24.826,6.02-36.867S283.273,159.275,258.76,158.845Z" fill="#263238" stroke="#263238" stroke-linecap="round" stroke-miterlimit="10" stroke-width="1"/>
            <path id="Path_56" data-name="Path 56" d="M255.316,248.214h0a24.8,24.8,0,0,1-24.8-24.805V185.3c0-5.106,5.027-6.243,13.2-10.543l6.02-3.441,21.146,4.739c6.377,1.712,9.245,4.139,9.245,9.245v38.109A24.8,24.8,0,0,1,255.316,248.214Z" fill="#fff" stroke="#263238" stroke-linecap="round" stroke-miterlimit="10" stroke-width="1"/>
            <path id="Path_57" data-name="Path 57" d="M236.9,206.526s4.917,3.824,11.472,0" fill="none" stroke="#263238" stroke-linecap="round" stroke-miterlimit="10" stroke-width="1"/>
            <path id="Path_58" data-name="Path 58" d="M262.572,206.526s4.916,3.824,11.472,0" fill="none" stroke="#263238" stroke-linecap="round" stroke-miterlimit="10" stroke-width="1"/>
            <path id="Path_59" data-name="Path 59" d="M235.8,199.151s3-5.19,12.291-4.37" fill="none" stroke="#263238" stroke-linecap="round" stroke-miterlimit="10" stroke-width="2"/>
            <path id="Path_60" data-name="Path 60" d="M260.66,194.781a11.615,11.615,0,0,1,14.2,4.37" fill="none" stroke="#263238" stroke-linecap="round" stroke-miterlimit="10" stroke-width="2"/>
            <path id="Path_61" data-name="Path 61" d="M250.606,217.145a7.864,7.864,0,0,0,8.8,0" fill="none" stroke="#263238" stroke-linecap="round" stroke-miterlimit="10" stroke-width="1"/>
            <path id="Path_62" data-name="Path 62" d="M243.5,222.9l4.638,1.739a17.348,17.348,0,0,0,12.35-.065l4.324-1.674" fill="none" stroke="#263238" stroke-linecap="round" stroke-miterlimit="10" stroke-width="1"/>
            <path id="Path_63" data-name="Path 63" d="M249.729,171.316s-.815,12.675,16.777,16.4,15.9-5.751,15.9-5.751-12.517-8.795-20.975-12.178S249.729,171.316,249.729,171.316Z" fill="#263238" stroke="#263238" stroke-linecap="round" stroke-miterlimit="10" stroke-width="1"/>
          </g>
        </g>
        <g id="Group_41" data-name="Group 41">
          <path id="Path_64" data-name="Path 64" d="M195.358,398.767c-6.476,15.112,1.308,32.221,8.093,39.315s15.785,16.687,38.786,15.785c32.008-1.256,54.765,1.655,64.943-10.373s11.274-34.727-.9-51.864A123.274,123.274,0,0,1,298.751,379h-93.07A199.717,199.717,0,0,0,195.358,398.767Z" fill="#787878" stroke="#263238" stroke-linecap="round" stroke-miterlimit="10" stroke-width="1"/>
          <g id="Group_34" data-name="Group 34">
            <path id="Path_65" data-name="Path 65" d="M226.509,268.306s7.748,14.138,28.352,14.138c21.214,0,25.941-14.131,25.944-14.138.666-1.994,15.3-.437,17.435-.109,5.059.778,12.757,1.871,15.857,6.52,2.06,3.091,10.3,20.6,10.3,20.6l-25.57,25.831s-6.881,30.83-6.366,35.466S308.431,393.7,308.431,393.7H197.17l16.483-37.086-2.986-32.186-27.919-24.475s5.666-21.634,10.3-24.724S217.73,265.5,226.509,268.306Z" fill="#ff651c" stroke="#263238" stroke-linecap="round" stroke-miterlimit="10" stroke-width="1"/>
            <g id="Group_33" data-name="Group 33">
              <path id="Path_66" data-name="Path 66" d="M223.739,341.015c2.065-5.079,4.525-11.775,7.237-20.405" fill="#92e3a9" stroke="#263238" stroke-linecap="round" stroke-miterlimit="10" stroke-width="1"/>
              <path id="Path_67" data-name="Path 67" d="M217.233,354.605a68.07,68.07,0,0,0,4.628-9.152" fill="#92e3a9" stroke="#263238" stroke-linecap="round" stroke-miterlimit="10" stroke-width="1"/>
              <path id="Path_68" data-name="Path 68" d="M272.927,322.78s7.957,21.7,13.743,29.655" fill="#92e3a9" stroke="#263238" stroke-linecap="round" stroke-miterlimit="10" stroke-width="1"/>
              <line id="Line_24" data-name="Line 24" x1="1.057" y1="5.6" transform="translate(204.214 290.231)" fill="#92e3a9" stroke="#263238" stroke-linecap="round" stroke-miterlimit="10" stroke-width="1"/>
              <line id="Line_25" data-name="Line 25" x1="4.328" y1="22.94" transform="translate(206.339 301.491)" fill="#92e3a9" stroke="#263238" stroke-linecap="round" stroke-miterlimit="10" stroke-width="1"/>
              <line id="Line_26" data-name="Line 26" y1="30.921" x2="5.2" transform="translate(298.829 290.231)" fill="#92e3a9" stroke="#263238" stroke-linecap="round" stroke-miterlimit="10" stroke-width="1"/>
              <path id="Path_69" data-name="Path 69" d="M290.13,371.167c.974,1.522,1.991,3,3.05,4.414" fill="#92e3a9" stroke="#263238" stroke-linecap="round" stroke-miterlimit="10" stroke-width="1"/>
              <path id="Path_70" data-name="Path 70" d="M275.821,339.416A151.3,151.3,0,0,0,288.1,367.831" fill="#92e3a9" stroke="#263238" stroke-linecap="round" stroke-miterlimit="10" stroke-width="1"/>
              <path id="Path_71" data-name="Path 71" d="M234.593,319.887s-5.787,18.8-7.957,24.592" fill="#92e3a9" stroke="#263238" stroke-linecap="round" stroke-miterlimit="10" stroke-width="1"/>
            </g>
          </g>
          <g id="Group_35" data-name="Group 35">
            <path id="Path_72" data-name="Path 72" d="M245.845,429.363c-16.236-16.837-45.7-25.256-60.133-27.661s-40.888-16.915-40.888-16.915-15.636-.524-14.433,18.117,46.3,40.289,63.74,49.91a56.328,56.328,0,0,0,51.714,1.8" fill="#787878" stroke="#263238" stroke-linecap="round" stroke-miterlimit="10" stroke-width="1"/>
            <path id="Path_73" data-name="Path 73" d="M256,429.964c16.236-16.837,45.7-25.256,60.132-27.661s36.89-14.71,36.89-14.71,19.635-2.728,18.432,15.913-46.3,40.288-63.74,49.91a56.328,56.328,0,0,1-51.714,1.8" fill="#787878" stroke="#263238" stroke-linecap="round" stroke-miterlimit="10" stroke-width="1"/>
          </g>
          <g id="Group_37" data-name="Group 37">
            <g id="Group_36" data-name="Group 36">
              <path id="Path_74" data-name="Path 74" d="M322.952,445.152s1.659-2.1-.546-5.287-6.938,1.473-10.821,2.734-19.171,4.664-26.461,6.251c-6.229,1.355-15.9,1.415-18.759,1.891.827,4.186,1.024,9.073-.789,13.4-1.4.068,2.893-.124,1.445-.059,12.676-.566,19.942-.685,23.863-1.1,7.166-.766,16.415,2.475,23.714-.286s12.4-9.881,11.371-13.059A8.76,8.76,0,0,0,322.952,445.152Z" fill="#fff" stroke="#263238" stroke-linecap="round" stroke-miterlimit="10" stroke-width="1"/>
              <path id="Path_75" data-name="Path 75" d="M265.935,450.813l.392-.066Z" fill="#fff" stroke="#263238" stroke-linecap="round" stroke-miterlimit="10" stroke-width="1"/>
              <path id="Path_76" data-name="Path 76" d="M265.58,450.873l.188-.032Z" fill="#fff" stroke="#263238" stroke-linecap="round" stroke-miterlimit="10" stroke-width="1"/>
            </g>
            <path id="Path_77" data-name="Path 77" d="M322.952,445.152a19.7,19.7,0,0,1-6.212,2.067" fill="none" stroke="#263238" stroke-linecap="round" stroke-miterlimit="10" stroke-width="1"/>
            <path id="Path_78" data-name="Path 78" d="M325.969,449.636a55.8,55.8,0,0,1-8.2,2.72" fill="none" stroke="#263238" stroke-linecap="round" stroke-miterlimit="10" stroke-width="1"/>
            <path id="Path_79" data-name="Path 79" d="M317.4,455.914a9.984,9.984,0,0,0,6.669-1.02" fill="none" stroke="#263238" stroke-linecap="round" stroke-miterlimit="10" stroke-width="1"/>
            <path id="Path_80" data-name="Path 80" d="M315.384,459.114c.346-.112,1.756.7,6.171-.986" fill="none" stroke="#263238" stroke-linecap="round" stroke-miterlimit="10" stroke-width="1"/>
            <path id="Path_81" data-name="Path 81" d="M265.576,464.144c1.813-4.33,1.616-9.217.789-13.4l-.785.132s-27.956-5.951-51.713-20.428-53.824-36.749-69.043-45.658-29.7,4.454-28.212,18.56,12.992,21.53,33.78,30.067,58.65,21.9,78.7,25.984C239.419,461.5,254.023,464.708,265.576,464.144Z" fill="#787878" stroke="#263238" stroke-linecap="round" stroke-miterlimit="10" stroke-width="1"/>
          </g>
          <g id="Group_40" data-name="Group 40">
            <g id="Group_38" data-name="Group 38">
              <path id="Path_82" data-name="Path 82" d="M223.985,463.327c-1.941-4.326-1.805-9.217-1.006-13.409.507.079.816.13.816.13s28.849-6.053,53.5-20.53,63.755-36.277,79.547-45.186,30.814,4.455,29.274,18.56-13.482,21.53-35.051,30.068S282.3,454.388,261.5,458.472C250.782,460.576,235.972,463.848,223.985,463.327Z" fill="#787878" stroke="#263238" stroke-linecap="round" stroke-miterlimit="10" stroke-width="1"/>
            </g>
            <g id="Group_39" data-name="Group 39">
              <path id="Path_83" data-name="Path 83" d="M222.979,449.918s-27.688-3.459-36.425-5.882-14.6-7.938-17.476-6.383-.486,5.426-.486,5.426-1.954,4.815-.058,7.971,4.767,6.207,14.544,11.3,21.316,3.154,27.426,2.884a93.006,93.006,0,0,0,13.481-1.91S221.64,458.669,222.979,449.918Z" fill="#fff" stroke="#263238" stroke-linecap="round" stroke-miterlimit="10" stroke-width="1"/>
              <path id="Path_84" data-name="Path 84" d="M168.592,443.079a4,4,0,0,1,4.277.886,12.312,12.312,0,0,0,4.522,2.778" fill="none" stroke="#263238" stroke-linecap="round" stroke-miterlimit="10" stroke-width="1"/>
              <path id="Path_85" data-name="Path 85" d="M167.755,448.873a4.18,4.18,0,0,1,3.843-.124,18.28,18.28,0,0,0,4.355,1.546" fill="none" stroke="#263238" stroke-linecap="round" stroke-miterlimit="10" stroke-width="1"/>
              <path id="Path_86" data-name="Path 86" d="M171.454,454.513s.859-1.385,1.866-1.177,5.1,1.609,6.222,1.749" fill="none" stroke="#263238" stroke-linecap="round" stroke-miterlimit="10" stroke-width="1"/>
              <path id="Path_87" data-name="Path 87" d="M176.8,458.655a3.888,3.888,0,0,1,2.306-.994,33.6,33.6,0,0,1,3.531.455" fill="none" stroke="#263238" stroke-linecap="round" stroke-miterlimit="10" stroke-width="1"/>
            </g>
          </g>
        </g>
      </g>
    </g>
  </g>
</svg>
